<?xml version="1.0" encoding="UTF-8" ?>
<!DOCTYPE svg PUBLIC "-//W3C//DTD SVG 1.1//EN" "http://www.w3.org/Graphics/SVG/1.1/DTD/svg11.dtd">
<svg width="50pt" height="50pt" viewBox="0 0 50 50" version="1.1" xmlns="http://www.w3.org/2000/svg">
<g id="#4caf50ff">
<path fill="#4caf50" opacity="1.00" d=" M 26.55 5.85 C 29.43 4.47 32.71 2.92 35.93 3.28 C 39.04 5.78 39.79 10.28 40.48 14.02 C 41.07 24.61 36.58 35.46 28.34 42.23 C 23.88 45.68 18.37 47.80 12.69 47.72 C 11.26 44.85 10.58 41.72 9.69 38.66 C 13.27 36.37 17.09 34.50 20.91 32.65 C 23.04 33.21 25.30 34.33 27.53 33.62 C 30.55 30.51 32.90 26.37 32.92 21.92 C 31.59 20.52 30.22 19.15 28.56 18.13 C 27.24 14.16 27.53 9.90 26.55 5.85 Z" />
</g>
</svg>
