<?xml version="1.0" encoding="UTF-8" ?>
<!DOCTYPE svg PUBLIC "-//W3C//DTD SVG 1.1//EN" "http://www.w3.org/Graphics/SVG/1.1/DTD/svg11.dtd">
<svg width="500pt" height="635pt" viewBox="0 0 500 635" version="1.1" xmlns="http://www.w3.org/2000/svg">
<g id="#010001ff">
<path fill="#010001" opacity="1.00" d=" M 215.71 30.58 C 221.77 23.89 229.40 18.03 238.36 16.03 C 235.02 18.36 230.90 19.23 227.58 21.61 C 220.39 26.03 215.07 32.67 209.86 39.15 C 210.80 35.71 213.53 33.26 215.71 30.58 Z" />
<path fill="#010001" opacity="1.00" d=" M 234.41 27.40 C 246.42 20.69 261.43 19.67 274.21 24.82 C 285.72 29.23 295.17 38.48 300.03 49.79 C 300.46 51.02 300.73 52.30 300.84 53.61 C 298.89 49.79 297.23 45.79 294.79 42.24 C 286.14 29.37 270.44 21.71 254.98 22.58 C 234.59 23.06 215.74 39.01 212.30 59.20 C 230.89 59.34 249.53 59.32 268.05 61.08 C 271.73 61.38 276.61 61.89 277.57 66.27 C 281.55 79.47 279.94 93.51 280.37 107.10 C 290.07 101.12 297.76 91.79 300.90 80.75 C 303.66 72.19 302.85 63.05 301.15 54.38 C 303.54 58.48 303.56 63.40 303.65 68.01 C 303.88 81.19 297.69 94.16 287.79 102.76 C 285.47 104.84 282.72 106.35 280.36 108.37 C 279.40 111.11 279.94 114.15 279.76 117.02 C 291.94 114.01 304.96 114.35 316.85 118.44 C 333.34 123.95 347.33 136.43 354.73 152.15 C 360.60 164.45 362.42 178.62 359.91 192.01 C 356.53 210.70 344.57 227.66 328.00 236.96 C 314.44 244.85 297.94 247.12 282.66 243.85 C 280.64 249.87 279.24 256.82 274.13 261.07 C 270.79 262.71 266.87 262.40 263.25 262.50 C 257.68 262.18 252.13 262.58 246.60 263.10 C 214.38 263.48 182.18 262.64 149.97 262.45 C 143.10 262.54 139.31 255.18 138.70 249.20 C 135.23 217.61 136.95 185.77 135.56 154.07 C 132.62 155.03 129.66 155.99 126.62 156.57 C 129.33 154.83 132.50 154.10 135.58 153.30 C 135.40 130.25 135.11 107.17 133.56 84.16 C 128.31 84.02 122.95 84.41 117.80 83.30 C 116.32 79.39 117.37 74.95 118.05 70.94 C 119.20 65.78 122.34 59.61 128.45 59.68 C 156.01 59.17 183.59 59.14 211.16 59.17 C 213.92 45.89 222.43 33.88 234.41 27.40 M 123.07 63.07 C 118.75 68.42 118.03 75.83 118.39 82.46 C 123.35 82.93 128.34 82.80 133.32 82.78 C 132.51 76.21 132.38 69.43 130.13 63.14 C 129.26 59.98 124.70 61.11 123.07 63.07 M 130.71 60.74 C 131.75 63.08 132.61 65.51 133.03 68.04 C 135.40 82.25 135.44 96.69 136.15 111.04 C 136.60 127.68 136.76 144.33 136.91 160.97 C 137.75 189.64 136.76 218.39 139.52 246.97 C 139.89 251.91 141.43 257.33 145.73 260.27 C 148.69 262.26 152.50 261.02 154.98 258.86 C 159.54 254.97 162.02 249.12 162.71 243.25 C 200.90 242.67 239.10 242.91 277.29 242.79 C 271.02 240.30 264.80 237.60 259.22 233.75 C 258.61 234.18 257.39 235.06 256.78 235.49 C 253.06 234.15 255.57 228.95 251.61 227.74 C 251.11 230.05 252.78 233.89 249.90 234.89 C 248.57 235.12 246.96 234.71 246.90 233.11 C 246.17 229.02 248.14 224.24 245.47 220.67 C 245.27 225.20 245.64 229.74 245.31 234.27 L 243.68 235.23 C 243.25 230.15 243.63 225.05 243.46 219.97 C 243.43 218.43 242.87 217.10 241.76 215.98 C 241.50 222.28 241.81 228.60 241.58 234.91 C 240.19 234.92 239.57 234.29 239.70 233.02 C 239.56 226.43 239.84 219.84 239.61 213.25 C 238.32 209.14 235.88 205.46 234.53 201.34 C 209.37 201.36 184.21 201.44 159.05 201.47 C 157.56 201.72 156.38 201.25 155.51 200.07 C 155.14 198.54 156.29 196.92 157.93 197.26 C 173.60 197.14 189.28 197.21 204.95 197.13 C 214.37 196.98 223.80 197.14 233.21 196.88 C 229.97 184.62 230.33 171.45 234.34 159.41 C 209.22 159.44 184.10 159.43 158.99 159.49 C 157.65 159.59 156.59 159.04 155.81 157.84 C 159.06 156.65 162.56 157.30 165.94 157.14 C 189.03 157.02 212.12 156.78 235.21 156.88 C 235.93 155.18 236.65 153.49 237.39 151.81 C 212.91 151.94 188.43 151.82 163.95 151.98 C 161.45 151.83 158.44 152.82 156.33 151.15 L 156.78 149.74 C 183.98 149.29 211.20 149.57 238.41 149.51 C 239.50 147.82 240.57 146.11 241.67 144.43 C 213.58 144.34 185.47 144.72 157.39 144.44 C 157.01 144.03 156.25 143.20 155.88 142.78 C 156.64 142.64 158.18 142.37 158.95 142.23 C 187.12 142.01 215.32 142.49 243.47 141.75 C 244.71 140.12 245.96 138.51 247.22 136.90 C 217.11 136.82 187.00 137.37 156.89 137.05 C 156.84 136.49 156.73 135.36 156.68 134.79 C 187.34 134.45 218.02 134.67 248.69 134.47 C 251.29 133.67 252.95 131.05 255.08 129.41 C 224.39 129.64 193.70 129.49 163.01 129.59 C 160.86 129.56 158.67 129.80 156.56 129.29 C 155.62 126.81 158.61 127.27 160.01 127.23 C 192.64 127.11 225.30 127.40 257.92 127.00 C 264.41 123.11 271.07 119.36 278.44 117.37 C 278.86 106.91 279.52 96.45 279.03 85.99 C 278.42 78.48 278.73 70.48 275.03 63.65 C 265.20 61.16 254.96 61.67 244.93 60.87 C 206.86 59.99 168.78 60.44 130.71 60.74 M 292.07 116.17 C 276.91 117.05 262.18 123.61 251.36 134.26 C 241.04 144.26 234.27 157.85 232.54 172.12 C 230.77 186.13 233.82 200.71 241.13 212.81 C 249.11 226.19 262.12 236.49 277.03 241.07 C 291.31 245.55 307.18 244.77 320.95 238.88 C 336.33 232.40 348.93 219.64 355.20 204.16 C 360.92 190.30 361.48 174.39 356.79 160.15 C 352.16 145.84 342.24 133.35 329.41 125.50 C 318.32 118.63 305.08 115.35 292.07 116.17 M 164.05 244.60 C 163.25 251.19 159.59 257.01 154.69 261.35 C 191.45 261.79 228.23 262.45 264.98 261.35 C 268.10 261.02 271.80 261.53 274.38 259.43 C 278.10 255.19 279.64 249.59 281.24 244.30 C 242.17 244.37 203.11 244.48 164.05 244.60 Z" />
<path fill="#010001" opacity="1.00" d=" M 156.38 99.55 C 156.78 99.45 157.57 99.25 157.97 99.15 C 193.00 99.20 228.01 98.60 263.04 98.89 C 265.48 98.96 265.69 102.90 263.26 103.18 C 228.15 103.35 193.03 103.36 157.91 103.36 C 155.82 103.80 154.52 100.56 156.38 99.55 Z" />
<path fill="#010001" opacity="1.00" d=" M 157.09 112.39 C 191.74 112.13 226.40 112.26 261.06 112.15 C 262.24 112.18 264.93 111.92 264.12 114.02 C 262.91 114.80 261.39 114.45 260.03 114.56 C 226.36 114.50 192.68 114.64 159.01 114.68 C 157.46 115.01 155.14 113.98 157.09 112.39 Z" />
<path fill="#010001" opacity="1.00" d=" M 156.65 119.83 C 192.56 119.61 228.50 119.48 264.41 119.75 C 264.20 120.26 263.79 121.28 263.58 121.79 C 227.96 122.33 192.31 122.27 156.68 122.10 C 156.67 121.54 156.66 120.40 156.65 119.83 Z" />
<path fill="#010001" opacity="1.00" d=" M 113.97 162.12 C 117.98 159.94 121.99 157.58 126.50 156.59 C 122.54 159.00 118.17 160.63 114.18 162.97 C 100.53 170.90 88.86 182.33 80.96 196.02 C 72.50 210.75 68.50 228.05 69.91 245.00 C 71.12 260.89 77.07 276.37 86.65 289.10 C 100.99 308.60 123.57 321.64 147.50 324.91 C 160.41 326.55 173.62 325.68 186.15 322.16 C 187.42 317.24 190.87 313.12 191.32 307.97 C 191.84 304.55 192.30 300.43 195.68 298.58 C 200.58 295.90 206.32 293.20 211.98 295.03 C 215.83 295.99 218.83 299.01 220.39 302.58 C 220.87 303.72 221.31 304.88 221.76 306.04 C 222.73 308.41 223.57 310.87 225.03 312.99 C 227.27 316.07 230.83 317.74 233.47 320.41 C 236.82 323.78 236.63 329.54 240.86 332.19 C 244.66 335.37 250.71 337.46 251.68 342.85 C 251.69 343.26 251.72 344.09 251.74 344.50 C 246.06 339.37 238.72 335.67 230.94 335.61 C 212.96 335.30 194.48 332.70 176.95 338.08 C 176.51 337.98 175.62 337.77 175.18 337.66 C 178.78 336.66 182.38 335.64 186.07 334.97 C 187.22 331.02 187.75 326.87 186.49 322.88 C 167.34 328.28 146.39 327.82 127.73 320.74 C 123.04 328.67 115.39 335.20 106.08 336.65 C 91.10 339.71 75.08 328.89 72.05 313.96 C 69.27 303.06 73.88 291.43 82.24 284.23 C 73.28 270.26 68.43 253.59 69.04 236.96 C 68.76 206.22 87.39 176.95 113.97 162.12 M 73.27 300.95 C 69.98 313.71 77.12 328.00 89.15 333.27 C 102.16 339.63 120.29 333.80 125.89 320.20 C 108.26 313.70 93.05 301.12 82.70 285.49 C 78.15 289.58 74.59 294.91 73.27 300.95 M 195.34 317.21 C 196.31 321.21 197.74 325.29 200.64 328.33 C 202.22 329.97 204.76 331.29 206.98 330.07 C 212.02 327.75 213.11 321.65 214.54 316.86 C 212.11 316.66 209.21 316.63 207.65 314.39 C 205.88 311.65 205.12 308.33 202.86 305.88 C 199.13 308.79 198.70 313.98 195.34 317.21 M 205.03 332.00 C 203.04 331.95 201.37 330.77 199.62 329.98 C 199.51 331.16 199.41 332.34 199.30 333.54 C 203.51 333.52 207.73 333.47 211.94 333.63 C 211.71 332.10 211.47 330.58 211.25 329.07 C 209.35 330.34 207.46 332.02 205.03 332.00 Z" />
<path fill="#010001" opacity="1.00" d=" M 156.38 210.63 C 157.99 209.46 160.36 210.94 160.13 212.90 C 160.24 218.60 160.11 224.30 160.18 230.00 C 160.12 231.52 160.37 233.19 159.40 234.51 C 157.90 235.39 155.22 234.95 155.37 232.81 C 155.16 226.89 155.38 220.95 155.27 215.02 C 155.42 213.57 154.87 211.53 156.38 210.63 Z" />
<path fill="#010001" opacity="1.00" d=" M 178.31 212.18 C 178.31 209.73 182.66 209.54 182.79 212.01 C 183.08 217.01 182.80 222.03 182.91 227.04 C 182.69 230.15 184.10 234.60 180.02 235.52 C 177.55 233.76 178.31 230.62 178.21 228.02 C 178.32 222.74 178.07 217.45 178.31 212.18 Z" />
<path fill="#010001" opacity="1.00" d=" M 194.43 210.65 C 196.07 209.48 198.48 210.87 198.24 212.89 C 198.27 219.64 198.38 226.40 198.18 233.14 C 197.85 235.79 193.25 235.42 193.43 232.73 C 193.26 226.46 193.41 220.19 193.36 213.92 C 193.44 212.82 193.25 211.26 194.43 210.65 Z" />
<path fill="#010001" opacity="1.00" d=" M 164.83 210.81 L 166.42 209.92 C 166.78 218.32 166.81 226.76 166.40 235.16 C 163.75 234.71 164.94 231.83 164.63 230.08 C 164.80 223.66 164.40 217.21 164.83 210.81 Z" />
<path fill="#010001" opacity="1.00" d=" M 171.13 210.98 C 172.63 209.22 175.79 210.71 175.38 213.01 C 175.37 219.68 175.54 226.37 175.30 233.03 C 175.40 235.58 170.48 235.59 170.63 233.02 C 170.46 225.98 170.46 218.91 170.63 211.87 L 171.13 210.98 Z" />
<path fill="#010001" opacity="1.00" d=" M 187.32 210.97 L 187.85 210.25 L 189.06 210.76 C 189.28 218.56 189.21 226.37 189.11 234.17 C 188.67 234.40 187.78 234.86 187.34 235.09 C 187.03 227.06 187.05 219.00 187.32 210.97 Z" />
<path fill="#010001" opacity="1.00" d=" M 202.92 210.75 L 204.15 210.25 L 204.73 211.05 C 204.94 219.06 205.01 227.11 204.66 235.13 C 204.21 234.89 203.32 234.41 202.87 234.17 C 202.80 226.37 202.73 218.55 202.92 210.75 Z" />
<path fill="#010001" opacity="1.00" d=" M 208.76 211.90 C 209.15 209.61 213.35 209.68 213.39 212.08 C 213.68 217.36 213.38 222.66 213.51 227.96 C 213.40 230.61 214.30 234.16 211.21 235.44 C 210.60 235.08 209.37 234.37 208.76 234.01 C 208.66 226.64 208.59 219.26 208.76 211.90 Z" />
<path fill="#010001" opacity="1.00" d=" M 217.25 210.93 L 217.88 210.28 L 219.06 210.80 C 219.26 218.57 219.21 226.36 219.09 234.12 C 218.64 234.38 217.76 234.88 217.31 235.13 C 217.03 227.07 217.08 218.99 217.25 210.93 Z" />
<path fill="#010001" opacity="1.00" d=" M 222.22 213.97 C 222.35 212.82 221.80 208.86 224.12 210.76 C 224.39 218.20 224.21 225.66 224.22 233.11 C 224.29 234.32 223.66 234.92 222.33 234.93 C 222.13 227.95 222.31 220.95 222.22 213.97 Z" />
<path fill="#010001" opacity="1.00" d=" M 227.46 234.99 C 227.42 226.91 227.03 218.77 227.63 210.72 L 229.26 210.23 C 229.40 218.23 229.39 226.23 229.30 234.23 C 228.84 234.42 227.92 234.80 227.46 234.99 Z" />
<path fill="#010001" opacity="1.00" d=" M 231.98 210.94 C 233.72 209.37 236.73 210.59 236.36 213.06 C 236.35 219.73 236.49 226.40 236.29 233.07 C 236.45 234.63 234.22 235.25 233.04 234.80 C 230.89 234.21 231.74 231.59 231.51 229.96 C 231.83 223.63 230.95 217.17 231.98 210.94 Z" />
<path fill="#010001" opacity="1.00" d=" M 35.25 280.11 C 41.25 272.08 46.72 263.64 53.04 255.87 C 52.54 257.32 51.92 258.74 50.99 259.98 C 43.87 269.64 36.93 279.43 29.88 289.13 C 30.48 285.54 33.35 283.04 35.25 280.11 Z" />
<path fill="#010001" opacity="1.00" d=" M 59.29 333.11 C 59.98 332.06 60.99 331.31 62.00 330.61 C 54.58 341.83 46.31 352.48 38.56 363.48 C 35.62 367.40 33.01 371.57 29.82 375.30 C 30.66 372.08 33.03 369.67 34.88 367.02 C 42.98 355.69 51.23 344.47 59.29 333.11 Z" />
<path fill="#010001" opacity="1.00" d=" M 200.58 346.41 C 202.05 343.70 205.50 344.46 208.04 344.29 C 210.28 344.39 213.27 343.97 214.50 346.37 C 215.20 350.90 214.74 355.51 214.76 360.07 C 215.44 360.73 216.13 361.39 216.82 362.06 C 216.90 365.22 216.69 368.37 216.34 371.52 C 209.12 373.37 201.91 375.29 194.88 377.77 C 187.45 381.32 180.24 385.32 173.02 389.27 C 173.63 393.12 173.50 398.67 178.18 399.89 C 183.14 400.28 187.97 398.18 192.97 398.37 C 191.32 396.20 189.60 394.09 188.07 391.84 C 191.52 393.87 193.08 397.78 196.12 400.23 C 198.75 401.48 201.71 400.39 204.45 400.22 C 202.89 398.27 201.38 396.28 200.20 394.08 C 202.93 396.43 204.97 400.40 209.02 400.46 C 213.63 400.89 218.29 401.07 222.92 400.75 C 225.29 400.79 226.90 398.90 228.59 397.54 C 229.88 399.85 232.92 399.26 234.86 398.24 C 236.58 395.89 236.07 392.76 236.38 390.03 C 236.48 384.07 238.08 378.25 240.50 372.83 C 240.60 373.60 240.79 375.13 240.89 375.89 C 243.60 378.22 246.71 380.21 248.85 383.11 C 249.86 385.76 250.00 388.65 250.57 391.42 C 253.31 388.91 255.82 385.83 259.45 384.60 C 264.70 383.17 271.37 384.68 274.09 389.77 C 275.99 393.44 273.65 397.33 272.64 400.88 C 274.27 399.65 275.82 398.31 277.14 396.76 L 276.83 398.25 C 274.87 402.50 269.79 403.24 265.89 404.80 C 259.56 407.81 252.63 410.53 248.39 416.44 C 246.42 418.27 245.23 421.77 242.18 421.74 C 246.40 417.53 249.53 412.11 254.79 409.05 C 260.38 405.61 267.33 403.97 271.56 398.61 C 273.67 396.16 274.59 392.22 272.48 389.49 C 268.91 384.71 261.16 383.82 256.53 387.56 C 250.91 391.89 247.89 398.96 241.59 402.52 C 237.57 405.14 232.67 405.39 228.24 406.89 C 230.81 408.25 234.52 407.88 236.28 410.51 C 238.37 413.57 239.97 416.95 241.39 420.37 L 240.93 422.11 C 238.57 418.42 237.29 414.07 234.46 410.69 C 231.62 409.41 227.86 409.32 226.53 405.98 C 230.15 404.36 234.13 403.96 237.88 402.72 C 237.06 401.67 236.25 400.63 235.43 399.60 C 229.17 399.89 223.32 402.74 217.00 402.20 C 211.69 402.14 206.36 400.78 201.07 401.90 C 196.51 403.07 192.60 398.81 188.01 399.90 C 184.11 400.72 180.19 401.74 176.18 401.13 C 175.30 403.29 174.41 405.45 173.61 407.65 C 173.54 407.16 173.39 406.18 173.31 405.69 C 173.53 403.65 174.74 401.84 175.50 399.97 C 173.01 397.21 172.55 393.48 172.09 389.95 C 170.03 390.66 169.03 392.58 168.01 394.33 L 167.70 393.73 L 167.21 392.62 C 163.58 393.61 159.50 394.75 155.87 393.16 C 150.43 390.09 149.83 382.07 153.26 377.28 C 155.93 373.00 160.60 370.51 165.43 369.49 C 164.22 368.57 163.06 367.59 161.80 366.75 C 163.86 367.39 165.87 368.29 168.00 368.69 C 172.12 368.03 176.01 366.31 180.14 365.59 C 186.96 363.85 194.27 363.10 200.31 359.22 C 200.34 354.95 199.91 350.63 200.58 346.41 M 196.70 362.65 C 188.89 365.26 180.68 366.44 172.80 368.78 C 167.10 370.99 160.12 370.78 155.92 375.89 C 151.44 379.95 150.82 388.28 156.14 391.89 C 160.35 393.85 165.23 392.28 169.08 390.15 C 177.86 385.19 186.70 380.28 195.82 375.99 C 202.50 374.40 208.83 371.45 215.73 370.86 C 213.58 368.59 210.23 370.43 207.57 370.15 C 209.13 366.47 214.70 369.40 216.53 365.85 C 212.84 365.73 209.22 366.58 205.55 366.76 C 208.12 363.82 212.79 364.74 216.18 363.06 C 212.58 359.93 207.64 363.34 203.51 363.26 C 205.45 358.96 210.67 358.92 214.03 356.35 C 207.41 353.62 202.22 360.13 196.70 362.65 M 237.42 389.02 C 237.33 392.14 237.10 395.27 236.19 398.27 C 237.13 399.73 238.08 401.19 239.01 402.67 C 243.49 400.49 246.82 396.76 249.87 392.94 C 249.28 389.81 248.72 386.68 248.23 383.54 C 245.25 386.41 241.65 388.69 237.42 389.02 M 271.41 400.22 C 269.64 403.10 274.75 400.54 271.41 400.22 Z" />
<path fill="#010001" opacity="1.00" d=" M 131.62 358.57 C 132.36 357.61 133.22 356.74 134.09 355.90 C 132.86 358.87 130.77 361.34 128.91 363.92 C 112.40 386.77 95.93 409.64 79.42 432.49 C 77.75 434.84 76.18 437.34 73.89 439.16 C 75.51 435.85 77.92 433.04 80.03 430.06 C 97.22 406.22 114.44 382.41 131.62 358.57 Z" />
<path fill="#010001" opacity="1.00" d=" M 160.01 362.48 C 163.48 363.14 167.05 364.48 169.28 367.36 C 166.21 365.69 162.92 364.42 160.01 362.48 Z" />
<path fill="#010001" opacity="1.00" d=" M 83.32 381.47 C 85.06 379.10 86.53 376.42 88.97 374.67 C 87.40 377.75 85.19 380.42 83.20 383.23 C 65.44 407.86 47.62 432.45 29.90 457.11 C 30.28 455.82 30.56 454.47 31.39 453.39 C 48.72 429.43 66.01 405.44 83.32 381.47 Z" />
<path fill="#010001" opacity="1.00" d=" M 253.23 380.66 C 254.70 377.56 257.77 375.52 261.11 374.99 C 258.40 376.77 255.74 378.60 253.23 380.66 Z" />
<path fill="#010001" opacity="1.00" d=" M 253.62 383.94 C 255.44 381.10 258.88 380.27 261.97 379.60 C 259.33 381.31 256.38 382.46 253.62 383.94 Z" />
<path fill="#010001" opacity="1.00" d=" M 252.72 424.18 C 256.10 417.09 263.96 414.39 270.48 411.05 C 267.91 414.16 263.74 415.07 260.48 417.25 C 257.33 418.90 255.51 422.08 252.72 424.18 Z" />
<path fill="#010001" opacity="1.00" d=" M 242.39 422.22 L 243.81 421.96 C 245.21 434.24 245.77 446.60 246.22 458.94 C 246.01 459.60 245.61 460.91 245.40 461.56 C 244.06 448.49 244.62 435.21 242.39 422.22 Z" />
<path fill="#010001" opacity="1.00" d=" M 202.52 435.75 C 203.48 436.65 204.59 437.47 205.07 438.75 C 207.16 443.66 208.30 448.92 209.35 454.13 C 211.38 465.38 212.95 476.73 213.82 488.13 C 213.55 490.40 213.82 492.67 214.65 494.81 C 215.72 503.10 216.84 511.39 217.97 519.68 C 218.25 523.57 218.64 527.46 219.38 531.31 C 220.91 543.84 222.34 556.40 224.37 568.87 C 225.65 576.88 226.28 585.02 228.46 592.86 C 234.05 592.97 239.77 592.92 245.19 591.37 C 245.97 583.27 245.39 575.14 244.82 567.06 C 244.71 559.70 244.73 552.34 244.82 544.98 C 246.15 527.67 243.31 510.30 245.24 493.02 C 245.54 491.34 246.17 489.73 246.26 488.03 C 246.31 479.30 245.84 470.53 246.55 461.82 C 246.77 474.00 246.98 486.22 246.05 498.39 C 245.54 504.56 245.69 510.77 245.97 516.95 C 246.79 531.60 245.94 546.28 246.11 560.94 C 245.80 571.62 247.87 582.36 245.96 592.97 C 248.21 601.24 252.84 610.07 249.33 618.68 C 250.74 609.88 247.78 601.41 245.01 593.21 C 240.34 593.63 235.67 593.99 231.00 594.45 C 231.68 599.06 231.91 603.80 233.50 608.22 C 235.11 612.55 239.15 615.17 242.70 617.82 C 238.77 616.90 235.67 613.86 233.60 610.53 C 230.76 605.84 231.18 600.14 229.96 594.98 C 229.17 594.31 228.35 593.69 227.49 593.13 C 225.81 588.76 225.36 584.08 224.66 579.50 C 223.61 571.39 222.10 563.35 221.19 555.23 C 220.76 550.02 220.03 544.86 219.16 539.71 C 217.74 528.17 216.45 516.60 214.74 505.09 C 212.26 486.38 211.12 467.44 207.03 448.96 C 206.74 447.49 206.23 446.02 205.12 444.95 C 203.46 459.58 203.99 474.30 203.38 488.98 C 203.05 489.27 202.38 489.84 202.05 490.13 C 202.95 478.09 202.12 465.98 203.24 453.95 C 203.40 447.88 204.86 441.59 202.52 435.75 Z" />
<path fill="#010001" opacity="1.00" d=" M 173.77 520.06 C 175.73 531.62 176.78 543.32 178.10 554.97 C 178.15 557.66 177.75 560.33 177.53 563.02 C 177.02 555.08 175.96 547.21 175.19 539.30 C 174.99 533.46 173.40 527.75 173.51 521.90 L 173.77 520.06 Z" />
</g>
<g id="#ee3f34ff">
<path fill="#ee3f34" opacity="1.00" d=" M 212.30 59.20 C 215.74 39.01 234.59 23.06 254.98 22.58 C 270.44 21.71 286.14 29.37 294.79 42.24 C 297.23 45.79 298.89 49.79 300.84 53.61 C 300.91 53.80 301.07 54.19 301.15 54.38 C 302.85 63.05 303.66 72.19 300.90 80.75 C 297.76 91.79 290.07 101.12 280.37 107.10 C 279.94 93.51 281.55 79.47 277.57 66.27 C 276.61 61.89 271.73 61.38 268.05 61.08 C 249.53 59.32 230.89 59.34 212.30 59.20 Z" />
<path fill="#ee3f34" opacity="1.00" d=" M 292.07 116.17 C 305.08 115.35 318.32 118.63 329.41 125.50 C 342.24 133.35 352.16 145.84 356.79 160.15 C 361.48 174.39 360.92 190.30 355.20 204.16 C 348.93 219.64 336.33 232.40 320.95 238.88 C 307.18 244.77 291.31 245.55 277.03 241.07 C 262.12 236.49 249.11 226.19 241.13 212.81 C 233.82 200.71 230.77 186.13 232.54 172.12 C 234.27 157.85 241.04 144.26 251.36 134.26 C 262.18 123.61 276.91 117.05 292.07 116.17 M 272.58 156.49 C 270.62 158.22 270.56 161.68 272.46 163.47 C 277.87 169.11 283.63 174.41 288.96 180.13 C 285.14 184.85 280.39 188.78 276.22 193.20 C 274.19 195.54 270.60 197.51 271.14 201.11 C 271.34 205.17 277.14 206.43 279.61 203.64 C 285.13 198.17 290.62 192.66 296.08 187.13 C 301.78 192.71 307.29 198.48 313.03 204.00 C 314.30 205.38 316.36 205.06 318.03 204.90 C 321.29 204.14 321.99 199.41 319.91 197.16 C 314.41 191.37 308.55 185.92 303.05 180.12 C 308.16 175.24 313.05 170.13 318.12 165.19 C 319.50 163.74 321.39 162.25 321.02 159.98 C 321.48 156.06 316.09 153.63 313.32 156.26 C 307.33 161.61 302.19 167.89 296.05 173.06 C 290.29 167.79 285.04 161.98 279.38 156.60 C 277.64 154.76 274.36 154.70 272.58 156.49 Z" />
<path fill="#ee3f34" opacity="1.00" d=" M 126.62 156.57 C 129.66 155.99 132.62 155.03 135.56 154.07 C 136.95 185.77 135.23 217.61 138.70 249.20 C 139.31 255.18 143.10 262.54 149.97 262.45 C 182.18 262.64 214.38 263.48 246.60 263.10 C 243.88 273.07 238.72 282.26 232.50 290.46 C 228.88 294.87 225.27 299.47 220.39 302.58 C 218.83 299.01 215.83 295.99 211.98 295.03 C 206.32 293.20 200.58 295.90 195.68 298.58 C 192.30 300.43 191.84 304.55 191.32 307.97 C 190.87 313.12 187.42 317.24 186.15 322.16 C 173.62 325.68 160.41 326.55 147.50 324.91 C 123.57 321.64 100.99 308.60 86.65 289.10 C 77.07 276.37 71.12 260.89 69.91 245.00 C 68.50 228.05 72.50 210.75 80.96 196.02 C 88.86 182.33 100.53 170.90 114.18 162.97 C 118.17 160.63 122.54 159.00 126.50 156.59 L 126.62 156.57 Z" />
<path fill="#ee3f34" opacity="1.00" d=" M 310.79 288.42 C 311.87 287.70 312.69 286.38 314.04 286.16 C 315.06 286.92 315.98 287.82 316.93 288.68 C 315.90 289.67 314.87 290.65 313.84 291.64 C 312.80 290.59 311.78 289.52 310.79 288.42 Z" />
<path fill="#ee3f34" opacity="1.00" d=" M 362.80 288.28 C 364.06 288.02 365.34 287.78 366.61 287.53 C 367.52 293.59 367.15 299.72 367.31 305.82 C 369.38 305.84 371.65 306.46 373.61 305.55 C 375.37 303.11 373.05 300.11 372.30 297.67 C 373.01 297.25 374.42 296.41 375.13 295.98 C 374.25 294.82 372.63 294.03 372.38 292.50 C 373.05 291.44 373.97 290.56 374.98 289.82 C 376.16 290.60 377.24 291.52 378.34 292.42 C 377.47 293.43 376.55 294.41 375.69 295.44 C 377.52 298.91 379.23 302.97 377.78 306.91 C 376.23 310.14 372.09 310.34 368.98 310.23 C 366.26 310.12 362.96 308.24 363.21 305.13 C 363.29 299.51 363.03 293.89 362.80 288.28 Z" />
<path fill="#ee3f34" opacity="1.00" d=" M 297.59 290.60 C 298.63 289.04 300.02 291.10 301.00 291.60 C 301.97 291.11 303.32 289.06 304.37 290.56 C 305.14 291.30 305.89 292.07 306.63 292.86 C 305.50 293.85 304.36 294.84 303.22 295.81 C 302.66 295.27 301.55 294.18 300.99 293.64 C 300.44 294.18 299.35 295.27 298.81 295.82 C 297.65 294.84 296.50 293.86 295.37 292.87 C 296.08 292.09 296.82 291.33 297.59 290.60 Z" />
<path fill="#ee3f34" opacity="1.00" d=" M 308.47 300.02 C 308.11 296.32 311.52 292.01 315.49 293.48 C 319.77 295.60 320.75 301.40 319.57 305.64 C 317.34 309.99 311.87 310.03 307.65 310.37 C 306.65 313.17 305.45 316.27 302.65 317.73 C 297.88 320.34 290.58 319.20 288.09 313.95 C 286.17 309.76 287.55 304.96 289.49 301.04 C 290.74 301.58 291.98 302.16 293.22 302.74 C 291.69 306.08 289.56 311.13 293.37 313.76 C 296.84 316.50 302.02 314.51 303.42 310.50 C 300.56 310.02 296.64 309.87 295.60 306.51 C 294.54 302.75 296.65 297.28 301.02 296.94 C 305.58 297.31 307.44 302.20 307.96 306.10 C 309.73 305.98 311.50 305.86 313.28 305.72 C 311.15 304.42 307.99 303.10 308.47 300.02 M 313.54 296.97 C 313.11 298.14 312.70 299.32 312.30 300.50 C 313.48 300.84 314.68 301.19 315.88 301.52 C 315.58 299.77 314.79 298.21 313.54 296.97 M 299.49 305.26 C 300.72 306.34 302.50 305.78 303.99 305.90 C 303.19 304.04 302.22 302.26 301.00 300.65 C 300.31 302.11 299.23 303.56 299.49 305.26 Z" />
<path fill="#ee3f34" opacity="1.00" d=" M 321.57 306.59 C 320.25 302.53 323.07 296.38 327.98 297.03 C 332.06 298.09 333.22 302.68 334.00 306.27 C 340.06 306.51 339.13 297.30 344.97 297.30 C 350.66 297.53 352.27 306.21 348.00 309.27 C 345.72 310.93 342.89 309.38 340.68 308.39 C 338.40 309.55 335.92 310.19 333.38 310.44 C 331.24 314.69 327.55 317.82 323.42 320.05 C 322.75 318.88 322.08 317.71 321.41 316.55 C 324.14 314.79 326.70 312.76 328.83 310.28 C 326.11 310.03 322.64 309.58 321.57 306.59 M 325.66 305.98 C 327.06 305.94 328.47 305.88 329.88 305.82 C 329.20 304.32 328.61 302.76 327.69 301.40 C 325.29 300.79 325.45 304.41 325.66 305.98 M 344.88 301.10 C 344.13 302.34 343.40 303.60 342.68 304.86 C 343.81 305.29 344.95 305.71 346.10 306.14 C 346.54 304.31 346.13 302.50 344.88 301.10 Z" />
<path fill="#ee3f34" opacity="1.00" d=" M 176.95 338.08 C 194.48 332.70 212.96 335.30 230.94 335.61 C 238.72 335.67 246.06 339.37 251.74 344.50 C 257.34 351.17 260.97 359.12 265.71 366.36 C 268.31 370.63 273.30 373.24 274.68 378.25 C 275.62 382.19 276.11 386.23 277.22 390.14 C 277.91 392.30 277.57 394.58 277.14 396.76 C 275.82 398.31 274.27 399.65 272.64 400.88 C 273.65 397.33 275.99 393.44 274.09 389.77 C 271.37 384.68 264.70 383.17 259.45 384.60 C 255.82 385.83 253.31 388.91 250.57 391.42 C 250.00 388.65 249.86 385.76 248.85 383.11 C 246.71 380.21 243.60 378.22 240.89 375.89 C 240.79 375.13 240.60 373.60 240.50 372.83 C 238.08 378.25 236.48 384.07 236.38 390.03 C 236.07 392.76 236.58 395.89 234.86 398.24 C 232.92 399.26 229.88 399.85 228.59 397.54 C 226.90 398.90 225.29 400.79 222.92 400.75 C 218.29 401.07 213.63 400.89 209.02 400.46 C 204.97 400.40 202.93 396.43 200.20 394.08 C 201.38 396.28 202.89 398.27 204.45 400.22 C 201.71 400.39 198.75 401.48 196.12 400.23 C 193.08 397.78 191.52 393.87 188.07 391.84 C 189.60 394.09 191.32 396.20 192.97 398.37 C 187.97 398.18 183.14 400.28 178.18 399.89 C 173.50 398.67 173.63 393.12 173.02 389.27 C 180.24 385.32 187.45 381.32 194.88 377.77 C 201.91 375.29 209.12 373.37 216.34 371.52 C 216.69 368.37 216.90 365.22 216.82 362.06 C 216.13 361.39 215.44 360.73 214.76 360.07 C 214.74 355.51 215.20 350.90 214.50 346.37 C 213.27 343.97 210.28 344.39 208.04 344.29 C 205.50 344.46 202.05 343.70 200.58 346.41 C 199.91 350.63 200.34 354.95 200.31 359.22 C 194.27 363.10 186.96 363.85 180.14 365.59 C 176.01 366.31 172.12 368.03 168.00 368.69 C 165.87 368.29 163.86 367.39 161.80 366.75 C 163.06 367.59 164.22 368.57 165.43 369.49 C 160.60 370.51 155.93 373.00 153.26 377.28 C 149.83 382.07 150.43 390.09 155.87 393.16 C 159.50 394.75 163.58 393.61 167.21 392.62 L 167.70 393.73 C 162.53 397.00 155.51 398.36 150.12 394.82 C 147.01 392.74 147.08 388.70 146.17 385.48 C 145.18 381.20 142.05 376.79 144.45 372.39 C 147.82 364.91 152.31 357.89 157.53 351.56 C 162.36 345.71 169.00 341.87 175.67 338.48 C 175.99 338.38 176.63 338.18 176.95 338.08 M 160.01 362.48 C 162.92 364.42 166.21 365.69 169.28 367.36 C 167.05 364.48 163.48 363.14 160.01 362.48 M 253.23 380.66 C 255.74 378.60 258.40 376.77 261.11 374.99 C 257.77 375.52 254.70 377.56 253.23 380.66 M 253.62 383.94 C 256.38 382.46 259.33 381.31 261.97 379.60 C 258.88 380.27 255.44 381.10 253.62 383.94 Z" />
<path fill="#ee3f34" opacity="1.00" d=" M 231.00 594.45 C 235.67 593.99 240.34 593.63 245.01 593.21 C 247.78 601.41 250.74 609.88 249.33 618.68 C 247.13 618.59 244.63 619.17 242.70 617.82 C 239.15 615.17 235.11 612.55 233.50 608.22 C 231.91 603.80 231.68 599.06 231.00 594.45 Z" />
<path fill="#ee3f34" opacity="1.00" d=" M 186.29 595.18 C 191.03 595.05 196.08 594.04 200.69 595.22 C 203.77 601.47 202.28 608.65 200.84 615.13 C 199.16 615.07 196.33 616.91 195.47 614.77 C 195.45 611.74 196.37 608.42 194.12 605.91 C 190.13 608.34 189.93 613.70 186.78 616.64 C 178.47 617.22 170.10 617.06 161.78 616.99 C 161.89 614.57 162.53 612.04 164.70 610.67 C 169.38 607.48 175.12 606.21 179.62 602.71 C 182.49 600.82 184.23 597.82 186.29 595.18 Z" />
</g>
<g id="#ffffffff">
<path fill="#ffffff" opacity="1.00" d=" M 123.07 63.07 C 124.70 61.11 129.26 59.98 130.13 63.14 C 132.38 69.43 132.51 76.21 133.32 82.78 C 128.34 82.80 123.35 82.93 118.39 82.46 C 118.03 75.83 118.75 68.42 123.07 63.07 Z" />
<path fill="#ffffff" opacity="1.00" d=" M 130.71 60.74 C 168.78 60.44 206.86 59.99 244.93 60.87 C 254.96 61.67 265.20 61.16 275.03 63.65 C 278.73 70.48 278.42 78.48 279.03 85.99 C 279.52 96.45 278.86 106.91 278.44 117.37 C 271.07 119.36 264.41 123.11 257.92 127.00 C 225.30 127.40 192.64 127.11 160.01 127.23 C 158.61 127.27 155.62 126.81 156.56 129.29 C 158.67 129.80 160.86 129.56 163.01 129.59 C 193.70 129.49 224.39 129.64 255.08 129.41 C 252.95 131.05 251.29 133.67 248.69 134.47 C 218.02 134.67 187.34 134.45 156.68 134.79 C 156.73 135.36 156.84 136.49 156.89 137.05 C 187.00 137.37 217.11 136.82 247.22 136.90 C 245.96 138.51 244.71 140.12 243.47 141.75 C 215.32 142.49 187.12 142.01 158.95 142.23 C 158.18 142.37 156.64 142.64 155.88 142.78 C 156.25 143.20 157.01 144.03 157.39 144.44 C 185.47 144.72 213.58 144.34 241.67 144.43 C 240.57 146.11 239.50 147.82 238.41 149.51 C 211.20 149.57 183.98 149.29 156.78 149.74 L 156.33 151.15 C 158.44 152.82 161.45 151.83 163.95 151.98 C 188.43 151.82 212.91 151.94 237.39 151.81 C 236.65 153.49 235.93 155.18 235.21 156.88 C 212.12 156.78 189.03 157.02 165.94 157.14 C 162.56 157.30 159.06 156.65 155.81 157.84 C 156.59 159.04 157.65 159.59 158.99 159.49 C 184.10 159.43 209.22 159.44 234.34 159.41 C 230.33 171.45 229.97 184.62 233.21 196.88 C 223.80 197.14 214.37 196.98 204.95 197.13 C 189.28 197.21 173.60 197.14 157.93 197.26 C 156.29 196.92 155.14 198.54 155.51 200.07 C 156.38 201.25 157.56 201.72 159.05 201.47 C 184.21 201.44 209.37 201.36 234.53 201.34 C 235.88 205.46 238.32 209.14 239.61 213.25 C 239.84 219.84 239.56 226.43 239.70 233.02 C 239.57 234.29 240.19 234.92 241.58 234.91 C 241.81 228.60 241.50 222.28 241.76 215.98 C 242.87 217.10 243.43 218.43 243.46 219.97 C 243.63 225.05 243.25 230.15 243.68 235.23 L 245.31 234.27 C 245.64 229.74 245.27 225.20 245.47 220.67 C 248.14 224.24 246.17 229.02 246.90 233.11 C 246.96 234.71 248.57 235.12 249.90 234.89 C 252.78 233.89 251.11 230.05 251.61 227.74 C 255.57 228.95 253.06 234.15 256.78 235.49 C 257.39 235.06 258.61 234.18 259.22 233.75 C 264.80 237.60 271.02 240.30 277.29 242.79 C 239.10 242.91 200.90 242.67 162.71 243.25 C 162.02 249.12 159.54 254.97 154.98 258.86 C 152.50 261.02 148.69 262.26 145.73 260.27 C 141.43 257.33 139.89 251.91 139.52 246.97 C 136.76 218.39 137.75 189.64 136.91 160.97 C 136.76 144.33 136.60 127.68 136.15 111.04 C 135.44 96.69 135.40 82.25 133.03 68.04 C 132.61 65.51 131.75 63.08 130.71 60.74 M 156.38 99.55 C 154.52 100.56 155.82 103.80 157.91 103.36 C 193.03 103.36 228.15 103.35 263.26 103.18 C 265.69 102.90 265.48 98.96 263.04 98.89 C 228.01 98.60 193.00 99.20 157.97 99.15 C 157.57 99.25 156.78 99.45 156.38 99.55 M 157.09 112.39 C 155.14 113.98 157.46 115.01 159.01 114.68 C 192.68 114.64 226.36 114.50 260.03 114.56 C 261.39 114.45 262.91 114.80 264.12 114.02 C 264.93 111.92 262.24 112.18 261.06 112.15 C 226.40 112.26 191.74 112.13 157.09 112.39 M 156.65 119.83 C 156.66 120.40 156.67 121.54 156.68 122.10 C 192.31 122.27 227.96 122.33 263.58 121.79 C 263.79 121.28 264.20 120.26 264.41 119.75 C 228.50 119.48 192.56 119.61 156.65 119.83 M 156.38 210.63 C 154.87 211.53 155.42 213.57 155.27 215.02 C 155.38 220.95 155.16 226.89 155.37 232.81 C 155.22 234.95 157.90 235.39 159.40 234.51 C 160.37 233.19 160.12 231.52 160.18 230.00 C 160.11 224.30 160.24 218.60 160.13 212.90 C 160.36 210.94 157.99 209.46 156.38 210.63 M 178.31 212.18 C 178.07 217.45 178.32 222.74 178.21 228.02 C 178.31 230.62 177.55 233.76 180.02 235.52 C 184.10 234.60 182.69 230.15 182.91 227.04 C 182.80 222.03 183.08 217.01 182.79 212.01 C 182.66 209.54 178.31 209.73 178.31 212.18 M 194.43 210.65 C 193.25 211.26 193.44 212.82 193.36 213.92 C 193.41 220.19 193.26 226.46 193.43 232.73 C 193.25 235.42 197.85 235.79 198.18 233.14 C 198.38 226.40 198.27 219.64 198.24 212.89 C 198.48 210.87 196.07 209.48 194.43 210.65 M 164.83 210.81 C 164.40 217.21 164.80 223.66 164.63 230.08 C 164.94 231.83 163.75 234.71 166.40 235.16 C 166.81 226.76 166.78 218.32 166.42 209.92 L 164.83 210.81 M 171.13 210.98 L 170.63 211.87 C 170.46 218.91 170.46 225.98 170.63 233.02 C 170.48 235.59 175.40 235.58 175.30 233.03 C 175.54 226.37 175.37 219.68 175.38 213.01 C 175.79 210.71 172.63 209.22 171.13 210.98 M 187.32 210.97 C 187.05 219.00 187.03 227.06 187.34 235.09 C 187.78 234.86 188.67 234.40 189.11 234.17 C 189.21 226.37 189.28 218.56 189.06 210.76 L 187.85 210.25 L 187.32 210.97 M 202.92 210.75 C 202.73 218.55 202.80 226.37 202.87 234.17 C 203.32 234.41 204.21 234.89 204.66 235.13 C 205.01 227.11 204.94 219.06 204.73 211.05 L 204.15 210.25 L 202.92 210.75 M 208.76 211.90 C 208.59 219.26 208.66 226.64 208.76 234.01 C 209.37 234.37 210.60 235.08 211.21 235.44 C 214.30 234.16 213.40 230.61 213.51 227.96 C 213.38 222.66 213.68 217.36 213.39 212.08 C 213.35 209.68 209.15 209.61 208.76 211.90 M 217.25 210.93 C 217.08 218.99 217.03 227.07 217.31 235.13 C 217.76 234.88 218.64 234.38 219.09 234.12 C 219.21 226.36 219.26 218.57 219.06 210.80 L 217.88 210.28 L 217.25 210.93 M 222.22 213.97 C 222.31 220.95 222.13 227.95 222.33 234.93 C 223.66 234.92 224.29 234.32 224.22 233.11 C 224.21 225.66 224.39 218.20 224.12 210.76 C 221.80 208.86 222.35 212.82 222.22 213.97 M 227.46 234.99 C 227.92 234.80 228.84 234.42 229.30 234.23 C 229.39 226.23 229.40 218.23 229.26 210.23 L 227.63 210.72 C 227.03 218.77 227.42 226.91 227.46 234.99 M 231.98 210.94 C 230.95 217.17 231.83 223.63 231.51 229.96 C 231.74 231.59 230.89 234.21 233.04 234.80 C 234.22 235.25 236.45 234.63 236.29 233.07 C 236.49 226.40 236.35 219.73 236.36 213.06 C 236.73 210.59 233.72 209.37 231.98 210.94 Z" />
<path fill="#ffffff" opacity="1.00" d=" M 272.58 156.49 C 274.36 154.70 277.64 154.76 279.38 156.60 C 285.04 161.98 290.29 167.79 296.05 173.06 C 302.19 167.89 307.33 161.61 313.32 156.26 C 316.09 153.63 321.48 156.06 321.02 159.98 C 321.39 162.25 319.50 163.74 318.12 165.19 C 313.05 170.13 308.16 175.24 303.05 180.12 C 308.55 185.92 314.41 191.37 319.91 197.16 C 321.99 199.41 321.29 204.14 318.03 204.90 C 316.36 205.06 314.30 205.38 313.03 204.00 C 307.29 198.48 301.78 192.71 296.08 187.13 C 290.62 192.66 285.13 198.17 279.61 203.64 C 277.14 206.43 271.34 205.17 271.14 201.11 C 270.60 197.51 274.19 195.54 276.22 193.20 C 280.39 188.78 285.14 184.85 288.96 180.13 C 283.63 174.41 277.87 169.11 272.46 163.47 C 270.56 161.68 270.62 158.22 272.58 156.49 Z" />
<path fill="#ffffff" opacity="1.00" d=" M 164.05 244.60 C 203.11 244.48 242.17 244.37 281.24 244.30 C 279.64 249.59 278.10 255.19 274.38 259.43 C 271.80 261.53 268.10 261.02 264.98 261.35 C 228.23 262.45 191.45 261.79 154.69 261.35 C 159.59 257.01 163.25 251.19 164.05 244.60 Z" />
<path fill="#ffffff" opacity="1.00" d=" M 73.27 300.95 C 74.59 294.91 78.15 289.58 82.70 285.49 C 93.05 301.12 108.26 313.70 125.89 320.20 C 120.29 333.80 102.16 339.63 89.15 333.27 C 77.12 328.00 69.98 313.71 73.27 300.95 Z" />
<path fill="#ffffff" opacity="1.00" d=" M 443.99 287.57 C 445.33 287.40 446.66 287.23 448.00 287.05 C 449.00 294.83 448.86 302.71 448.52 310.53 C 447.52 310.49 445.51 310.41 444.51 310.37 C 444.97 302.77 444.86 295.14 443.99 287.57 Z" />
<path fill="#ffffff" opacity="1.00" d=" M 422.89 291.75 C 423.89 290.64 424.92 289.56 426.01 288.52 C 427.12 289.59 428.18 290.72 429.21 291.88 C 428.18 292.88 427.14 293.88 426.08 294.85 C 425.01 293.82 423.94 292.79 422.89 291.75 Z" />
<path fill="#ffffff" opacity="1.00" d=" M 400.56 292.20 C 401.68 292.41 402.47 293.37 403.42 293.96 C 404.03 293.46 405.25 292.45 405.86 291.95 C 406.82 292.97 407.79 293.98 408.76 295.00 C 407.78 296.01 406.82 297.03 405.85 298.05 C 405.21 297.52 403.93 296.48 403.28 295.96 C 402.48 296.66 401.68 297.36 400.89 298.06 C 399.79 297.05 398.71 296.03 397.65 295.01 C 398.59 294.05 399.53 293.07 400.56 292.20 Z" />
<path fill="#ffffff" opacity="1.00" d=" M 454.14 296.73 C 454.67 295.51 455.22 294.29 455.80 293.09 C 459.75 295.24 463.06 298.77 464.36 303.13 C 464.79 305.14 464.58 307.56 462.74 308.82 C 459.25 311.32 454.50 310.62 450.74 309.18 C 451.00 307.91 451.29 306.64 451.62 305.39 C 454.63 306.18 457.94 306.95 460.83 305.31 C 459.86 301.62 457.14 298.88 454.14 296.73 Z" />
<path fill="#ffffff" opacity="1.00" d=" M 391.10 296.04 C 392.31 296.58 393.50 297.14 394.71 297.70 C 394.31 299.43 393.27 301.22 393.95 303.03 C 394.95 305.27 397.69 305.71 399.85 305.99 C 403.35 306.15 407.17 306.29 410.24 304.31 C 412.10 303.10 412.75 300.87 413.48 298.90 C 414.74 299.17 416.01 299.46 417.28 299.73 C 416.88 301.69 415.95 304.67 418.32 305.77 C 423.85 306.87 429.47 305.28 434.37 302.72 C 432.29 301.71 430.23 300.54 427.93 300.13 C 426.06 300.51 425.32 302.44 424.26 303.78 C 423.07 303.19 421.87 302.60 420.69 302.01 C 422.09 299.09 424.41 296.09 427.95 295.97 C 432.62 296.44 436.39 299.80 441.09 300.23 C 441.28 301.08 441.65 302.79 441.83 303.64 C 436.38 306.17 431.04 309.46 424.93 310.06 C 420.96 310.54 416.20 310.64 413.54 307.09 C 408.75 310.49 402.41 310.81 396.83 309.62 C 394.16 309.07 391.33 307.63 390.35 304.93 C 388.99 302.04 389.96 298.82 391.10 296.04 Z" />
<path fill="#ffffff" opacity="1.00" d=" M 482.66 297.51 C 483.82 296.90 484.99 296.29 486.17 295.70 C 488.05 299.30 489.90 303.83 487.64 307.68 C 484.76 311.13 479.59 310.28 475.65 309.83 C 474.57 314.98 470.22 318.33 465.83 320.68 C 465.05 319.51 464.31 318.32 463.60 317.13 C 466.57 315.29 470.02 313.49 471.32 310.01 C 472.02 306.94 470.54 303.96 469.78 301.04 C 471.02 300.71 472.27 300.39 473.52 300.07 C 474.51 302.08 475.27 304.38 477.13 305.80 C 479.49 305.95 482.63 306.84 484.51 304.96 C 484.81 302.33 483.56 299.89 482.66 297.51 Z" />
<path fill="#ffffff" opacity="1.00" d=" M 195.34 317.21 C 198.70 313.98 199.13 308.79 202.86 305.88 C 205.12 308.33 205.88 311.65 207.65 314.39 C 209.21 316.63 212.11 316.66 214.54 316.86 C 213.11 321.65 212.02 327.75 206.98 330.07 C 204.76 331.29 202.22 329.97 200.64 328.33 C 197.74 325.29 196.31 321.21 195.34 317.21 Z" />
<path fill="#ffffff" opacity="1.00" d=" M 477.95 314.10 C 478.96 313.18 479.98 312.28 481.01 311.38 C 481.61 311.93 482.82 313.02 483.42 313.57 C 484.30 312.83 485.19 312.10 486.08 311.37 C 487.10 312.59 490.05 313.91 488.05 315.66 C 486.37 317.27 486.21 320.02 484.01 321.13 C 480.88 320.09 480.43 316.06 477.95 314.10 Z" />
<path fill="#ffffff" opacity="1.00" d=" M 205.03 332.00 C 207.46 332.02 209.35 330.34 211.25 329.07 C 211.47 330.58 211.71 332.10 211.94 333.63 C 207.73 333.47 203.51 333.52 199.30 333.54 C 199.41 332.34 199.51 331.16 199.62 329.98 C 201.37 330.77 203.04 331.95 205.03 332.00 Z" />
<path fill="#ffffff" opacity="1.00" d=" M 275.08 345.12 C 277.66 344.39 280.31 343.42 283.05 343.86 C 288.48 344.45 293.36 349.43 293.00 355.05 C 293.07 361.60 286.32 366.63 280.05 365.78 C 274.26 365.30 269.09 359.96 269.66 354.01 C 269.74 350.63 272.17 348.09 273.96 345.47 C 274.24 345.38 274.80 345.21 275.08 345.12 Z" />
<path fill="#ffffff" opacity="1.00" d=" M 196.70 362.65 C 202.22 360.13 207.41 353.62 214.03 356.35 C 210.67 358.92 205.45 358.96 203.51 363.26 C 207.64 363.34 212.58 359.93 216.18 363.06 C 212.79 364.74 208.12 363.82 205.55 366.76 C 209.22 366.58 212.84 365.73 216.53 365.85 C 214.70 369.40 209.13 366.47 207.57 370.15 C 210.23 370.43 213.58 368.59 215.73 370.86 C 208.83 371.45 202.50 374.40 195.82 375.99 C 186.70 380.28 177.86 385.19 169.08 390.15 C 165.23 392.28 160.35 393.85 156.14 391.89 C 150.82 388.28 151.44 379.95 155.92 375.89 C 160.12 370.78 167.10 370.99 172.80 368.78 C 180.68 366.44 188.89 365.26 196.70 362.65 Z" />
<path fill="#ffffff" opacity="1.00" d=" M 256.53 387.56 C 261.16 383.82 268.91 384.71 272.48 389.49 C 274.59 392.22 273.67 396.16 271.56 398.61 C 267.33 403.97 260.38 405.61 254.79 409.05 C 249.53 412.11 246.40 417.53 242.18 421.74 L 241.99 421.94 C 241.84 421.55 241.54 420.76 241.39 420.37 C 239.97 416.95 238.37 413.57 236.28 410.51 C 234.52 407.88 230.81 408.25 228.24 406.89 C 232.67 405.39 237.57 405.14 241.59 402.52 C 247.89 398.96 250.91 391.89 256.53 387.56 Z" />
<path fill="#ffffff" opacity="1.00" d=" M 176.18 401.13 C 180.19 401.74 184.11 400.72 188.01 399.90 C 192.60 398.81 196.51 403.07 201.07 401.90 C 206.36 400.78 211.69 402.14 217.00 402.20 C 223.32 402.74 229.17 399.89 235.43 399.60 C 236.25 400.63 237.06 401.67 237.88 402.72 C 234.13 403.96 230.15 404.36 226.53 405.98 C 227.86 409.32 231.62 409.41 234.46 410.69 C 237.29 414.07 238.57 418.42 240.93 422.11 C 241.02 422.26 241.19 422.57 241.28 422.72 L 242.39 422.22 C 244.62 435.21 244.06 448.49 245.40 461.56 C 245.41 472.04 245.70 482.54 245.24 493.02 C 243.31 510.30 246.15 527.67 244.82 544.98 C 244.73 552.34 244.71 559.70 244.82 567.06 C 245.39 575.14 245.97 583.27 245.19 591.37 C 239.77 592.92 234.05 592.97 228.46 592.86 C 226.28 585.02 225.65 576.88 224.37 568.87 C 222.34 556.40 220.91 543.84 219.38 531.31 C 219.33 527.39 218.79 523.50 217.97 519.68 C 216.84 511.39 215.72 503.10 214.65 494.81 C 215.47 492.61 216.04 489.72 213.82 488.13 C 212.95 476.73 211.38 465.38 209.35 454.13 C 208.30 448.92 207.16 443.66 205.07 438.75 C 204.59 437.47 203.48 436.65 202.52 435.75 C 204.86 441.59 203.40 447.88 203.24 453.95 C 202.12 465.98 202.95 478.09 202.05 490.13 C 200.93 504.73 201.08 519.41 200.79 534.05 C 200.58 551.70 202.58 569.35 201.30 586.99 C 200.99 589.23 201.10 591.75 199.69 593.67 C 195.34 595.39 190.54 593.72 186.01 594.51 C 182.96 585.98 181.57 577.03 179.90 568.17 C 179.71 566.44 179.34 564.73 178.75 563.11 C 178.55 560.39 178.39 557.67 178.10 554.97 C 176.78 543.32 175.73 531.62 173.77 520.06 C 173.76 519.98 173.74 519.84 173.73 519.77 C 172.50 506.12 170.26 492.58 169.17 478.91 C 167.36 455.16 166.39 430.66 173.61 407.65 C 174.41 405.45 175.30 403.29 176.18 401.13 Z" />
</g>
<g id="#3e3c3cf1">
<path fill="#3e3c3c" opacity="0.95" d=" M 309.44 86.98 C 310.20 84.25 310.44 81.38 311.64 78.78 C 311.53 87.66 307.40 96.07 302.10 103.01 C 300.27 105.32 298.33 107.65 295.70 109.08 C 297.74 106.05 300.69 103.76 302.75 100.73 C 305.64 96.52 308.11 91.94 309.44 86.98 Z" />
<path fill="#3e3c3c" opacity="0.95" d=" M 88.25 164.34 C 92.26 161.22 96.31 157.92 101.14 156.17 C 98.77 158.58 95.55 159.85 92.88 161.88 C 80.45 170.79 70.50 183.47 65.66 198.04 C 65.37 198.94 64.88 199.72 64.18 200.37 C 67.85 186.13 77.01 173.63 88.25 164.34 Z" />
<path fill="#3e3c3c" opacity="0.95" d=" M 279.63 269.84 C 284.81 266.36 285.93 259.84 288.82 254.76 C 287.38 262.34 283.22 271.01 274.98 272.88 C 271.26 273.58 267.29 274.73 263.54 273.76 C 268.87 272.28 274.95 273.26 279.63 269.84 Z" />
<path fill="#3e3c3c" opacity="0.95" d=" M 232.87 302.90 C 233.94 303.44 235.06 304.02 235.75 305.06 C 240.46 310.88 242.96 318.28 248.48 323.49 C 253.80 328.61 259.71 333.75 261.75 341.17 C 259.27 339.17 258.84 335.69 256.80 333.32 C 251.91 327.20 245.08 322.69 241.41 315.60 C 239.11 311.00 236.02 306.92 232.87 302.90 Z" />
<path fill="#3e3c3c" opacity="0.95" d=" M 168.18 341.30 C 170.52 340.03 172.89 338.38 175.67 338.48 C 169.00 341.87 162.36 345.71 157.53 351.56 C 152.31 357.89 147.82 364.91 144.45 372.39 C 142.05 376.79 145.18 381.20 146.17 385.48 C 147.08 388.70 147.01 392.74 150.12 394.82 C 155.51 398.36 162.53 397.00 167.70 393.73 L 168.01 394.33 C 162.88 398.97 154.33 399.39 148.86 395.16 C 144.95 391.97 146.04 386.33 143.93 382.18 C 142.06 378.65 141.87 374.33 143.92 370.83 C 149.69 359.43 156.85 347.89 168.18 341.30 Z" />
<path fill="#3e3c3c" opacity="0.95" d=" M 273.63 345.32 C 279.78 339.82 290.47 342.98 293.33 350.52 C 296.83 357.97 289.87 366.96 281.99 366.84 C 275.25 367.56 268.65 361.89 268.42 355.12 C 268.34 351.28 270.24 346.99 273.96 345.47 C 272.17 348.09 269.74 350.63 269.66 354.01 C 269.09 359.96 274.26 365.30 280.05 365.78 C 286.32 366.63 293.07 361.60 293.00 355.05 C 293.36 349.43 288.48 344.45 283.05 343.86 C 280.31 343.42 277.66 344.39 275.08 345.12 L 273.63 345.32 Z" />
<path fill="#3e3c3c" opacity="0.95" d=" M 251.68 342.85 C 257.93 349.81 261.74 358.41 266.85 366.15 C 268.86 369.40 272.15 371.55 274.34 374.66 C 277.04 378.86 276.38 384.12 278.10 388.68 C 279.31 391.88 279.01 395.54 276.83 398.25 L 277.14 396.76 C 277.57 394.58 277.91 392.30 277.22 390.14 C 276.11 386.23 275.62 382.19 274.68 378.25 C 273.30 373.24 268.31 370.63 265.71 366.36 C 260.97 359.12 257.34 351.17 251.74 344.50 C 251.72 344.09 251.69 343.26 251.68 342.85 Z" />
<path fill="#3e3c3c" opacity="0.95" d=" M 271.41 400.22 C 274.75 400.54 269.64 403.10 271.41 400.22 Z" />
<path fill="#3e3c3c" opacity="0.95" d=" M 166.63 461.00 C 166.37 442.45 166.31 423.17 173.31 405.69 C 173.39 406.18 173.54 407.16 173.61 407.65 C 166.39 430.66 167.36 455.16 169.17 478.91 C 170.26 492.58 172.50 506.12 173.73 519.77 C 172.54 516.20 171.86 512.50 171.25 508.80 C 169.05 492.94 167.38 476.99 166.63 461.00 Z" />
<path fill="#3e3c3c" opacity="0.95" d=" M 155.65 450.99 C 155.68 449.18 155.26 447.15 156.53 445.65 C 156.94 457.44 157.95 469.21 160.15 480.81 C 160.43 483.57 161.74 486.38 160.95 489.16 C 157.92 476.66 156.53 463.80 155.65 450.99 Z" />
<path fill="#3e3c3c" opacity="0.95" d=" M 202.05 490.13 C 202.38 489.84 203.05 489.27 203.38 488.98 C 202.17 506.61 202.39 524.29 202.30 541.95 C 202.18 559.33 204.71 576.82 201.68 594.09 C 204.41 600.69 204.25 608.20 201.93 614.89 C 200.64 617.82 196.77 616.46 194.28 616.62 C 194.31 613.48 194.38 610.34 194.15 607.22 C 190.79 609.87 190.77 614.88 187.58 617.54 C 179.44 618.35 171.16 617.85 162.98 617.90 C 158.45 617.82 161.13 612.01 163.29 610.34 C 169.64 605.54 178.59 604.35 183.36 597.42 C 185.77 595.07 183.44 591.85 182.95 589.19 C 180.72 580.78 178.89 572.18 178.30 563.50 C 178.80 565.06 179.29 566.64 179.90 568.17 C 181.57 577.03 182.96 585.98 186.01 594.51 C 190.54 593.72 195.34 595.39 199.69 593.67 C 201.10 591.75 200.99 589.23 201.30 586.99 C 202.58 569.35 200.58 551.70 200.79 534.05 C 201.08 519.41 200.93 504.73 202.05 490.13 M 186.29 595.18 C 184.23 597.82 182.49 600.82 179.62 602.71 C 175.12 606.21 169.38 607.48 164.70 610.67 C 162.53 612.04 161.89 614.57 161.78 616.99 C 170.10 617.06 178.47 617.22 186.78 616.64 C 189.93 613.70 190.13 608.34 194.12 605.91 C 196.37 608.42 195.45 611.74 195.47 614.77 C 196.33 616.91 199.16 615.07 200.84 615.13 C 202.28 608.65 203.77 601.47 200.69 595.22 C 196.08 594.04 191.03 595.05 186.29 595.18 Z" />
<path fill="#3e3c3c" opacity="0.95" d=" M 254.47 557.59 C 255.61 559.18 255.26 561.18 255.33 563.03 C 255.24 569.71 254.34 576.36 254.61 583.06 C 254.18 590.78 256.18 598.30 257.84 605.77 C 257.55 605.78 256.99 605.80 256.70 605.82 C 254.48 595.37 252.61 584.68 254.02 573.97 C 254.49 568.52 253.90 563.03 254.47 557.59 Z" />
</g>
<g id="#58201fd3">
<path fill="#58201f" opacity="0.83" d=" M 125.82 99.42 C 127.39 101.77 126.72 104.75 126.95 107.42 C 126.59 114.83 126.82 122.25 126.95 129.66 C 125.90 127.58 126.07 125.22 126.06 122.97 C 126.12 115.11 126.22 107.26 125.82 99.42 Z" />
<path fill="#58201f" opacity="0.83" d=" M 246.60 263.10 C 252.13 262.58 257.68 262.18 263.25 262.50 C 257.95 263.71 251.82 261.73 247.29 265.37 C 242.38 280.22 233.23 293.37 221.76 303.90 C 221.76 304.44 221.76 305.51 221.76 306.04 C 221.31 304.88 220.87 303.72 220.39 302.58 C 225.27 299.47 228.88 294.87 232.50 290.46 C 238.72 282.26 243.88 273.07 246.60 263.10 Z" />
</g>
<g id="#2e1d1c52">
<path fill="#2e1d1c" opacity="0.32" d=" M 126.95 107.42 L 127.64 106.28 C 128.23 110.82 127.96 115.40 128.02 119.96 C 127.97 123.21 128.33 126.61 126.95 129.66 C 126.82 122.25 126.59 114.83 126.95 107.42 Z" />
<path fill="#2e1d1c" opacity="0.32" d=" M 171.25 508.80 C 171.86 512.50 172.54 516.20 173.73 519.77 C 173.74 519.84 173.76 519.98 173.77 520.06 L 173.51 521.90 C 173.40 527.75 174.99 533.46 175.19 539.30 C 174.60 537.58 174.25 535.78 174.11 533.98 C 173.39 525.56 171.40 517.26 171.25 508.80 Z" />
<path fill="#2e1d1c" opacity="0.32" d=" M 219.16 539.71 C 220.03 544.86 220.76 550.02 221.19 555.23 C 219.52 550.25 219.48 544.90 219.16 539.71 Z" />
</g>
<g id="#a5a0a0f7">
<path fill="#a5a0a0" opacity="0.97" d=" M 213.82 488.13 C 216.04 489.72 215.47 492.61 214.65 494.81 C 213.82 492.67 213.55 490.40 213.82 488.13 Z" />
<path fill="#a5a0a0" opacity="0.97" d=" M 217.97 519.68 C 218.79 523.50 219.33 527.39 219.38 531.31 C 218.64 527.46 218.25 523.57 217.97 519.68 Z" />
</g>
</svg>
