<?xml version="1.0" encoding="UTF-8" ?>
<!DOCTYPE svg PUBLIC "-//W3C//DTD SVG 1.1//EN" "http://www.w3.org/Graphics/SVG/1.1/DTD/svg11.dtd">
<svg width="70pt" height="70pt" viewBox="0 0 70 70" version="1.1" xmlns="http://www.w3.org/2000/svg">
<g id="#383a3cff">
<path fill="#383a3c" opacity="1.00" d=" M 35.92 15.72 C 38.91 8.19 46.83 2.46 55.11 3.38 C 63.99 3.73 70.33 13.78 67.70 22.04 C 66.45 28.60 61.49 33.71 55.75 36.75 C 54.57 34.64 54.89 30.08 51.54 30.43 C 52.99 34.78 54.06 39.29 53.77 43.91 C 44.24 42.11 34.40 44.09 25.69 48.12 C 24.69 44.00 24.17 39.79 24.35 35.55 C 23.84 35.53 22.81 35.48 22.30 35.46 C 22.29 37.75 22.31 40.04 22.34 42.34 C 15.47 46.59 3.55 45.14 1.76 36.00 C 1.05 28.37 8.88 22.50 16.00 22.46 C 18.89 22.38 21.65 24.20 24.53 23.21 C 22.35 21.05 19.35 20.35 16.38 20.24 C 17.13 13.02 23.46 6.31 30.98 6.61 C 33.44 6.47 35.63 7.72 37.77 8.74 C 35.63 11.50 33.42 14.47 33.02 18.06 C 34.71 19.72 35.29 16.72 35.92 15.72 M 31.36 31.33 C 29.46 32.24 26.41 33.29 27.45 36.00 C 33.79 31.39 42.10 30.54 49.65 31.89 C 49.57 31.38 49.42 30.37 49.34 29.86 C 43.42 28.48 37.01 29.13 31.36 31.33 Z" />
<path fill="#383a3c" opacity="1.00" d=" M 35.95 57.77 C 37.20 56.47 38.67 58.09 39.97 58.44 C 41.22 58.04 42.44 57.27 43.79 57.31 C 46.46 59.44 49.33 61.28 52.25 63.04 C 48.52 63.82 43.70 65.18 41.06 61.48 C 40.66 61.45 39.86 61.40 39.46 61.38 C 36.71 65.26 31.71 63.73 27.78 63.04 C 30.69 61.58 33.47 59.88 35.95 57.77 Z" />
</g>
</svg>
