<?xml version="1.0" encoding="UTF-8" ?>
<!DOCTYPE svg PUBLIC "-//W3C//DTD SVG 1.1//EN" "http://www.w3.org/Graphics/SVG/1.1/DTD/svg11.dtd">
<svg width="70pt" height="70pt" viewBox="0 0 70 70" version="1.1" xmlns="http://www.w3.org/2000/svg">
<g id="#383a3cff">
<path fill="#fff" opacity="1.00" d=" M 25.18 10.16 C 25.88 10.26 27.26 10.47 27.96 10.58 C 27.05 12.34 26.12 14.08 25.15 15.81 C 27.20 17.75 29.81 20.46 28.31 23.52 C 27.53 26.16 24.82 26.97 22.36 27.16 C 22.17 24.89 24.09 23.91 25.74 22.91 C 26.16 20.30 23.95 18.78 22.33 17.16 C 22.27 14.48 23.58 12.19 25.18 10.16 Z" />
<path fill="#fff" opacity="1.00" d=" M 30.24 16.05 C 31.56 13.77 32.37 9.57 35.83 10.29 C 35.87 12.36 34.51 14.03 33.60 15.79 C 35.52 17.66 37.88 20.01 36.96 22.98 C 36.48 25.62 33.82 26.67 31.48 27.14 C 31.36 26.59 31.12 25.50 31.00 24.95 C 32.40 23.86 35.01 23.25 34.22 20.93 C 33.05 19.18 31.58 17.66 30.24 16.05 Z" />
<path fill="#fff" opacity="1.00" d=" M 39.41 16.08 C 40.67 13.92 41.34 10.02 44.51 10.17 C 45.87 12.20 43.26 13.92 42.53 15.70 C 43.99 17.23 45.84 18.68 46.21 20.92 C 47.07 24.40 42.09 29.09 39.35 25.44 C 40.84 24.12 43.97 23.62 43.44 21.05 C 42.23 19.29 40.76 17.73 39.41 16.08 Z" />
<path fill="#fff" opacity="1.00" d=" M 51.62 26.56 C 53.32 25.21 55.42 26.64 56.77 27.80 C 54.20 30.79 51.44 33.62 49.03 36.75 C 46.48 36.80 43.93 36.72 41.40 36.39 C 44.71 33.03 48.06 29.67 51.62 26.56 Z" />
<path fill="#fff" opacity="1.00" d=" M 9.92 42.13 C 17.04 39.75 24.49 37.88 32.05 38.18 C 42.15 38.21 53.11 37.79 62.11 43.13 C 59.10 45.67 55.24 46.70 51.38 46.95 C 52.01 47.50 52.64 48.06 53.27 48.60 C 55.33 48.07 57.40 47.56 59.47 47.06 C 57.69 50.74 55.82 54.37 54.13 58.09 C 46.94 61.60 38.77 60.94 31.02 60.98 C 26.26 60.88 21.21 60.59 17.03 58.07 C 14.33 54.90 13.10 50.75 11.09 47.15 C 24.01 50.86 37.51 50.04 50.76 49.41 C 50.96 48.86 51.36 47.78 51.56 47.23 C 37.60 48.76 22.47 50.44 9.42 44.07 C 9.55 43.58 9.80 42.61 9.92 42.13 Z" />
</g>
</svg>
