<?xml version="1.0" encoding="UTF-8" ?>
<!DOCTYPE svg PUBLIC "-//W3C//DTD SVG 1.1//EN" "http://www.w3.org/Graphics/SVG/1.1/DTD/svg11.dtd">
<svg width="70pt" height="70pt" viewBox="0 0 70 70" version="1.1" xmlns="http://www.w3.org/2000/svg">
<g id="#383a3cff">
<path fill="#fff" opacity="1.00" d=" M 42.95 13.39 C 43.02 10.60 43.91 7.30 47.04 6.58 C 50.63 5.32 53.55 8.47 54.65 11.55 C 52.70 11.01 50.77 10.43 48.84 9.87 C 47.99 12.99 50.62 14.69 52.03 17.02 C 48.61 17.19 45.89 14.75 42.95 13.39 Z" />
<path fill="#fff" opacity="1.00" d=" M 38.22 21.23 C 39.73 18.38 42.11 14.31 46.00 15.82 C 48.49 17.89 48.28 21.57 49.29 24.43 C 53.39 25.14 57.26 23.35 61.29 23.00 C 61.00 25.06 60.85 27.18 60.18 29.17 C 59.48 29.14 58.06 29.08 57.35 29.05 C 58.62 32.81 59.69 36.64 60.83 40.44 C 63.81 40.46 66.62 41.41 69.08 43.07 C 63.52 46.43 57.62 49.17 52.02 52.46 C 51.42 51.24 50.54 50.27 49.05 50.59 C 37.66 50.58 26.26 50.66 14.86 50.56 C 13.54 48.05 10.38 49.09 8.13 48.55 C 10.36 46.54 13.67 47.75 16.19 46.32 C 11.42 45.71 6.61 46.36 1.83 45.99 C 1.38 45.69 0.47 45.09 0.01 44.79 C 6.12 43.49 12.69 45.83 18.54 43.37 C 14.51 42.90 10.43 43.17 6.39 42.80 C 11.15 39.63 17.57 43.16 22.69 40.51 C 19.63 40.16 16.55 40.16 13.49 39.85 C 16.13 37.76 19.64 38.87 22.73 38.44 C 28.69 37.66 34.70 37.78 40.70 37.78 C 39.46 40.37 37.40 42.94 37.85 45.98 C 39.11 47.44 41.16 47.24 42.87 47.60 C 43.81 44.15 44.80 40.72 45.86 37.31 C 41.97 36.15 37.99 37.67 34.03 37.27 C 30.58 36.96 26.88 38.04 23.59 36.97 C 23.34 36.39 22.84 35.22 22.59 34.64 C 26.69 34.50 30.80 34.47 34.90 34.58 C 33.25 29.87 36.22 25.32 38.22 21.23 M 41.64 30.09 C 44.72 31.70 49.17 31.86 51.06 35.03 C 50.50 39.52 47.88 43.46 46.50 47.73 C 48.85 46.97 51.60 46.33 52.91 43.99 C 55.90 39.12 55.24 33.08 54.76 27.64 C 51.19 27.25 46.41 28.09 45.10 23.70 C 43.97 25.84 42.80 27.97 41.64 30.09 Z" />
<path fill="#fff" opacity="1.00" d=" M 19.20 18.30 C 24.29 17.44 29.49 18.13 34.62 17.86 C 34.19 23.04 33.49 28.26 32.13 33.28 C 29.99 34.43 27.46 34.04 25.12 34.06 C 18.82 33.62 12.49 34.36 6.20 33.70 C 9.31 30.82 13.99 33.44 17.57 31.51 C 15.06 31.17 12.53 31.02 10.01 30.73 C 11.99 28.95 14.70 29.50 17.13 29.43 L 17.19 28.25 C 16.16 28.14 14.10 27.92 13.06 27.82 C 14.31 26.67 16.01 26.57 17.58 26.27 C 18.06 23.61 18.20 20.84 19.20 18.30 Z" />
<path fill="#fff" opacity="1.00" d=" M 63.30 46.85 C 64.61 46.35 65.92 45.82 67.23 45.28 C 67.79 47.41 68.91 49.69 67.97 51.89 C 66.64 55.83 62.08 58.60 58.00 57.25 C 55.64 56.58 54.91 54.01 53.95 52.06 C 54.92 51.56 56.87 50.56 57.85 50.06 C 57.66 50.97 57.29 52.77 57.10 53.67 C 59.58 54.22 62.85 54.95 64.38 52.26 C 65.80 50.43 64.32 48.42 63.30 46.85 Z" />
<path fill="#fff" opacity="1.00" d=" M 15.99 51.35 C 16.85 51.33 18.58 51.30 19.45 51.28 C 20.43 52.83 21.71 55.20 23.96 54.17 C 26.08 52.81 27.90 50.76 30.70 51.08 C 29.20 54.91 25.47 58.42 21.06 57.50 C 17.90 57.16 16.74 53.96 15.99 51.35 Z" />
</g>
</svg>
