<?xml version="1.0" encoding="UTF-8" ?>
<!DOCTYPE svg PUBLIC "-//W3C//DTD SVG 1.1//EN" "http://www.w3.org/Graphics/SVG/1.1/DTD/svg11.dtd">
<svg width="70pt" height="70pt" viewBox="0 0 70 70" version="1.1" xmlns="http://www.w3.org/2000/svg">
<g id="#373737ff">
<path fill="#fff" opacity="1.00" d=" M 36.48 8.67 C 38.87 7.64 42.08 8.17 43.33 10.65 C 45.01 14.23 46.04 18.06 47.58 21.70 C 41.37 21.75 35.16 21.63 28.96 21.73 C 25.24 21.53 21.71 24.31 20.99 27.94 C 20.60 30.68 20.79 33.45 20.82 36.21 C 18.01 37.23 15.09 38.03 12.42 39.41 C 12.47 40.00 12.59 41.19 12.64 41.78 C 15.37 40.87 18.10 39.94 20.76 38.86 C 20.79 41.60 20.78 44.35 20.80 47.10 C 17.06 48.23 12.37 51.44 8.97 47.90 C 5.80 41.48 4.00 34.45 1.27 27.82 C -0.18 25.09 1.19 21.56 4.05 20.50 C 14.84 16.51 25.67 12.63 36.48 8.67 M 8.48 29.03 C 8.61 31.06 9.71 32.84 10.84 34.47 C 12.99 33.76 15.23 33.20 17.18 32.02 C 18.04 29.59 16.38 24.83 13.08 26.38 C 11.44 26.94 9.33 27.33 8.48 29.03 Z" />
<path fill="#fff" opacity="1.00" d=" M 27.41 24.74 C 39.23 24.13 51.14 24.65 63.00 24.48 C 65.67 24.26 68.83 25.96 68.91 28.91 C 69.06 35.96 68.98 43.03 68.95 50.09 C 69.20 52.76 66.71 55.33 64.00 54.93 C 52.30 54.94 40.60 54.92 28.90 54.94 C 26.09 55.38 23.50 52.81 23.70 50.03 C 23.63 43.34 23.66 36.64 23.69 29.94 C 23.46 27.58 25.14 25.33 27.41 24.74 M 27.11 32.16 C 39.93 32.18 52.76 32.17 65.59 32.17 C 65.52 31.39 65.38 29.82 65.31 29.03 C 64.55 27.53 62.40 28.43 61.06 28.12 C 50.38 28.22 39.69 28.05 29.01 28.20 C 26.77 27.98 27.32 30.80 27.11 32.16 M 27.18 38.51 C 27.59 42.74 26.49 47.26 27.78 51.31 C 32.48 51.99 37.26 51.41 41.99 51.59 C 49.78 51.43 57.60 51.94 65.37 51.31 C 65.54 47.04 65.47 42.77 65.50 38.49 C 52.73 38.49 39.95 38.47 27.18 38.51 Z" />
</g>
<g id="#373737fd">
<path fill="#fff" opacity="1.00" d=" M 30.85 42.13 C 37.55 41.50 44.36 41.83 51.10 41.96 C 51.12 42.54 51.16 43.68 51.18 44.26 C 44.44 44.69 37.62 44.69 30.88 44.27 C 30.87 43.73 30.86 42.66 30.85 42.13 Z" />
</g>
</svg>
