<?xml version="1.0" encoding="UTF-8" ?>
<!DOCTYPE svg PUBLIC "-//W3C//DTD SVG 1.1//EN" "http://www.w3.org/Graphics/SVG/1.1/DTD/svg11.dtd">
<svg width="70pt" height="70pt" viewBox="0 0 70 70" version="1.1" xmlns="http://www.w3.org/2000/svg">
<g id="#383a3cff">
<path fill="#383a3c" opacity="1.00" d=" M 24.18 0.00 L 25.94 0.00 C 26.51 0.56 27.65 1.69 28.22 2.25 C 22.88 10.09 15.11 15.85 8.81 22.88 C 6.97 24.39 4.70 28.14 2.05 26.06 C -0.18 24.37 1.90 21.79 3.40 20.45 C 10.41 13.73 16.96 6.51 24.18 0.00 Z" />
<path fill="#383a3c" opacity="1.00" d=" M 7.66 25.88 C 13.99 19.41 20.44 13.05 26.84 6.65 C 31.02 11.27 36.10 15.14 39.74 20.20 C 42.05 24.13 37.64 27.30 37.79 31.02 C 39.86 32.95 41.86 30.77 43.81 29.86 C 46.09 28.62 49.14 29.09 50.99 30.91 C 55.09 34.72 58.88 38.85 62.90 42.74 C 56.45 49.05 50.10 55.47 43.74 61.88 C 39.69 57.69 35.34 53.80 31.48 49.44 C 29.22 46.70 30.36 42.94 32.22 40.33 C 33.53 38.98 32.60 37.06 30.99 36.50 C 27.79 38.07 23.98 40.95 20.48 38.31 C 15.87 34.54 12.07 29.88 7.66 25.88 M 12.31 25.85 C 15.73 28.99 18.70 32.64 22.34 35.54 C 24.32 37.21 26.27 34.81 28.14 34.16 C 29.94 32.99 32.29 34.17 34.13 33.23 C 35.14 31.35 33.90 28.97 35.10 27.13 C 35.75 25.25 38.12 23.34 36.52 21.34 C 33.67 17.66 29.98 14.73 26.86 11.29 C 21.99 16.13 17.14 20.98 12.31 25.85 M 35.11 32.90 C 34.67 33.27 33.80 34.01 33.37 34.39 C 34.74 35.03 35.63 36.64 37.38 36.12 C 35.94 38.07 35.99 40.63 34.75 42.67 C 34.25 43.96 32.83 45.40 33.79 46.82 C 36.62 50.72 40.47 53.75 43.82 57.20 C 48.56 52.33 53.38 47.55 58.21 42.78 C 54.79 39.45 51.72 35.71 47.94 32.79 C 45.17 31.85 41.78 34.24 40.89 36.87 C 40.67 36.92 40.22 37.02 39.99 37.07 L 40.80 35.67 C 38.77 35.05 36.80 34.21 35.11 32.90 Z" />
<path fill="#383a3c" opacity="1.00" d=" M 27.04 15.90 C 29.33 18.26 31.66 20.58 34.01 22.87 C 32.46 24.99 31.41 27.40 30.87 29.96 C 28.33 30.47 25.95 31.51 23.81 32.98 C 22.65 31.65 20.98 30.58 20.33 28.90 C 20.58 23.66 26.48 21.14 27.04 15.90 Z" />
<path fill="#383a3c" opacity="1.00" d=" M 43.33 39.41 C 43.64 39.41 44.25 39.42 44.55 39.42 C 44.44 39.97 44.21 41.08 44.10 41.63 C 47.38 41.96 50.64 42.36 53.92 42.71 C 50.45 46.06 47.06 49.50 43.66 52.92 C 43.25 49.08 42.89 45.23 42.36 41.41 L 43.83 41.78 C 43.70 41.19 43.45 40.00 43.33 39.41 Z" />
<path fill="#383a3c" opacity="1.00" d=" M 54.78 52.72 C 58.87 48.87 62.40 44.38 67.09 41.22 C 68.11 42.48 70.67 43.95 69.11 45.83 C 63.57 52.04 57.34 57.63 51.58 63.66 C 49.83 65.40 48.16 67.26 46.10 68.65 C 43.90 68.99 41.68 66.16 43.38 64.32 C 46.93 60.23 51.03 56.64 54.78 52.72 Z" />
</g>
<g id="#272829b2">
<path fill="#272829" opacity="0.70" d=" M 38.20 39.20 C 38.71 39.78 38.71 39.78 38.20 39.20 Z" />
</g>
<g id="#12121352">
<path fill="#121213" opacity="0.32" d=" M 40.23 39.31 C 41.85 38.76 42.41 39.30 41.91 40.93 C 40.29 41.48 39.73 40.94 40.23 39.31 Z" />
</g>
<g id="#1a1b1c77">
<path fill="#1a1b1c" opacity="0.47" d=" M 36.92 42.51 C 40.24 42.46 35.56 45.55 36.92 42.51 Z" />
</g>
<g id="#1d1e1f85">
<path fill="#1d1e1f" opacity="0.52" d=" M 40.07 42.19 C 43.37 42.43 38.46 45.12 40.07 42.19 Z" />
</g>
</svg>
