<?xml version="1.0" encoding="UTF-8" ?>
<!DOCTYPE svg PUBLIC "-//W3C//DTD SVG 1.1//EN" "http://www.w3.org/Graphics/SVG/1.1/DTD/svg11.dtd">
<svg width="70pt" height="70pt" viewBox="0 0 70 70" version="1.1" xmlns="http://www.w3.org/2000/svg">
<g id="#4e4c4bff">
<path fill="#4e4c4b" opacity="1.00" d=" M 15.49 33.50 C 21.38 27.71 27.11 21.74 33.08 16.03 C 36.43 13.96 40.02 18.62 37.92 21.67 C 34.54 25.13 30.99 28.43 27.72 31.99 C 35.82 32.05 43.93 31.93 52.04 32.05 C 55.89 32.41 55.87 38.63 52.02 38.96 C 43.59 39.07 35.17 38.96 26.74 39.01 C 30.38 42.85 34.23 46.49 37.92 50.29 C 38.72 51.74 38.55 53.37 37.93 54.85 C 36.31 55.87 34.28 56.53 32.52 55.45 C 26.82 49.83 21.22 44.12 15.52 38.51 C 14.76 37.06 14.70 34.94 15.49 33.50 Z" />
</g>
</svg>
