<?xml version="1.0" encoding="UTF-8" ?>
<!DOCTYPE svg PUBLIC "-//W3C//DTD SVG 1.1//EN" "http://www.w3.org/Graphics/SVG/1.1/DTD/svg11.dtd">
<svg width="100pt" height="100pt" viewBox="0 0 100 100" version="1.1" xmlns="http://www.w3.org/2000/svg">
<g id="#ffffffff">
<path fill="#ffffff" opacity="1.00" d=" M 9.79 13.71 C 25.85 6.97 43.73 2.49 61.17 5.72 C 70.00 7.13 78.60 9.77 86.87 13.17 C 88.92 13.89 90.59 15.32 92.02 16.92 C 93.38 20.51 93.43 24.85 91.01 28.02 C 89.49 30.33 86.87 31.43 84.44 32.49 C 82.33 36.70 80.17 40.87 78.06 45.07 C 76.52 47.96 77.65 51.45 76.33 54.40 C 75.49 56.28 73.39 56.91 71.73 57.84 C 69.04 62.83 66.63 67.95 63.99 72.96 C 62.11 76.07 62.50 80.20 59.67 82.76 C 56.41 86.05 56.12 91.73 51.71 93.93 C 48.20 95.73 44.83 93.06 42.01 91.20 C 39.04 89.58 39.38 85.99 38.90 83.16 C 34.71 74.29 29.97 65.66 25.78 56.78 C 25.28 55.86 24.74 54.97 24.19 54.08 C 22.50 53.51 20.88 52.74 19.38 51.79 C 19.39 51.91 19.40 52.16 19.41 52.28 L 19.41 52.28 C 16.36 48.94 17.11 44.30 17.26 40.21 C 16.49 38.39 15.57 36.65 14.73 34.87 C 14.35 34.09 13.95 33.32 13.56 32.55 C 12.00 31.81 10.46 31.06 8.95 30.24 C 3.62 26.38 3.22 16.52 9.79 13.71 M 10.16 17.12 C 5.06 21.07 9.46 29.56 15.44 29.40 C 17.14 32.95 18.97 36.44 20.68 39.99 C 20.26 43.10 19.29 46.81 21.39 49.52 C 22.51 51.09 24.34 50.43 25.90 50.22 C 31.37 61.17 36.97 72.06 42.40 83.03 C 42.52 84.72 41.73 87.13 43.48 88.23 C 45.84 89.64 48.64 93.00 51.43 90.43 C 54.03 87.18 54.65 82.62 57.95 79.87 C 59.53 78.61 58.80 76.29 59.68 74.64 C 63.05 67.84 66.49 61.07 69.94 54.31 C 74.47 55.23 74.43 49.87 73.66 46.92 C 76.53 41.05 79.57 35.27 82.43 29.39 C 85.93 29.10 89.29 26.74 89.76 23.08 C 90.56 20.10 88.75 16.98 85.81 16.14 C 73.53 11.08 60.34 7.61 46.98 7.85 C 34.28 8.50 21.65 11.71 10.16 17.12 Z" />
<path fill="#ffffff" opacity="1.00" d=" M 12.08 18.38 C 28.92 11.17 47.91 7.24 66.01 11.79 L 65.54 11.72 C 54.17 9.81 42.24 9.28 31.13 12.83 C 25.36 15.74 18.55 15.29 12.95 18.68 C 10.39 19.53 10.32 22.61 11.03 24.77 C 11.19 25.10 11.49 25.77 11.64 26.10 C 10.23 23.88 8.88 19.63 12.08 18.38 Z" />
<path fill="#ffffff" opacity="1.00" d=" M 22.06 28.94 C 25.78 25.63 30.37 23.26 35.25 22.23 C 29.52 24.23 24.19 27.37 20.05 31.86 C 21.34 34.74 22.78 37.72 22.36 40.97 C 22.57 43.68 21.28 47.36 24.40 48.78 L 24.98 49.23 C 24.35 49.04 23.08 48.65 22.45 48.45 C 21.03 44.00 23.07 38.97 20.46 34.84 C 19.69 32.45 17.07 30.32 17.71 27.66 C 18.15 28.74 19.04 30.90 19.48 31.98 C 20.34 30.97 21.20 29.96 22.06 28.94 Z" />
<path fill="#ffffff" opacity="1.00" d=" M 38.43 30.53 C 39.68 29.73 41.46 32.10 39.94 33.00 C 38.33 34.72 36.13 31.12 38.43 30.53 Z" />
<path fill="#ffffff" opacity="1.00" d=" M 58.07 33.46 C 55.75 33.16 56.53 29.93 58.52 30.47 C 58.91 30.87 59.69 31.65 60.09 32.05 C 59.58 32.40 58.57 33.11 58.07 33.46 Z" />
<path fill="#ffffff" opacity="1.00" d=" M 26.68 45.57 C 28.66 49.37 30.44 53.28 32.55 57.01 L 31.85 57.49 C 29.99 53.58 27.42 49.92 26.68 45.57 Z" />
<path fill="#ffffff" opacity="1.00" d=" M 42.39 78.53 C 42.64 78.31 43.14 77.86 43.40 77.64 C 44.17 80.91 44.50 84.26 44.42 87.61 C 43.96 84.54 44.32 81.18 42.39 78.53 Z" />
<path fill="#ffffff" opacity="1.00" d=" M 46.34 83.92 C 47.18 85.94 48.15 87.91 49.35 89.74 L 49.48 89.96 C 47.62 89.14 46.75 87.37 46.59 85.39 C 46.53 85.02 46.40 84.29 46.34 83.92 Z" />
</g>
<g id="#4f220dff">
<path fill="#4f220d" opacity="1.00" d=" M 10.16 17.12 C 21.65 11.71 34.28 8.50 46.98 7.85 C 60.34 7.61 73.53 11.08 85.81 16.14 C 88.75 16.98 90.56 20.10 89.76 23.08 C 89.29 26.74 85.93 29.10 82.43 29.39 C 79.57 35.27 76.53 41.05 73.66 46.92 C 74.43 49.87 74.47 55.23 69.94 54.31 C 66.49 61.07 63.05 67.84 59.68 74.64 C 58.80 76.29 59.53 78.61 57.95 79.87 C 54.65 82.62 54.03 87.18 51.43 90.43 C 48.64 93.00 45.84 89.64 43.48 88.23 C 41.73 87.13 42.52 84.72 42.40 83.03 C 36.97 72.06 31.37 61.17 25.90 50.22 C 24.34 50.43 22.51 51.09 21.39 49.52 C 19.29 46.81 20.26 43.10 20.68 39.99 C 18.97 36.44 17.14 32.95 15.44 29.40 C 9.46 29.56 5.06 21.07 10.16 17.12 M 12.08 18.38 C 8.88 19.63 10.23 23.88 11.64 26.10 C 13.37 27.88 15.88 26.79 17.73 25.86 C 37.85 16.39 62.26 16.91 82.16 26.72 C 87.03 28.78 90.48 20.13 85.68 18.04 C 79.13 15.48 72.50 12.93 65.54 11.72 L 66.01 11.79 C 47.91 7.24 28.92 11.17 12.08 18.38 M 35.25 22.23 C 30.37 23.26 25.78 25.63 22.06 28.94 C 22.57 28.01 23.59 26.14 24.10 25.21 C 21.98 26.05 19.86 26.91 17.71 27.66 C 17.07 30.32 19.69 32.45 20.46 34.84 C 23.07 38.97 21.03 44.00 22.45 48.45 C 23.08 48.65 24.35 49.04 24.98 49.23 L 24.40 48.78 L 26.02 48.59 C 26.18 47.83 26.51 46.32 26.68 45.57 C 27.42 49.92 29.99 53.58 31.85 57.49 L 32.55 57.01 C 33.54 56.68 34.54 56.35 35.53 56.02 C 35.78 59.00 38.85 58.27 40.93 58.41 C 43.00 58.34 44.21 60.41 46.03 61.07 C 46.64 60.46 47.25 59.84 47.85 59.21 C 47.71 59.86 47.45 61.16 47.31 61.80 C 50.41 67.13 48.75 74.44 43.40 77.64 C 43.14 77.86 42.64 78.31 42.39 78.53 C 44.32 81.18 43.96 84.54 44.42 87.61 C 44.96 87.06 46.05 85.95 46.59 85.39 C 46.75 87.37 47.62 89.14 49.48 89.96 L 49.35 89.74 C 51.19 86.08 55.09 82.40 53.84 78.02 C 54.77 78.30 56.90 79.83 57.10 77.93 C 57.39 74.83 58.50 71.95 60.03 69.27 C 56.53 67.32 53.45 64.15 52.90 60.03 C 51.69 53.68 56.70 47.16 63.10 46.56 C 65.36 45.79 66.50 48.34 68.58 48.59 C 70.74 49.03 70.24 51.82 71.70 53.11 C 72.69 50.39 72.85 47.43 72.45 44.58 C 75.06 40.54 76.89 36.09 79.16 31.87 C 79.74 30.65 80.32 29.43 80.90 28.21 C 78.90 27.21 76.81 26.40 74.64 25.88 L 74.54 25.45 C 70.78 24.45 67.11 23.12 63.26 22.52 C 66.42 25.32 70.43 27.09 73.12 30.43 C 69.22 28.66 66.08 25.56 62.09 23.94 C 53.75 19.82 44.11 20.66 35.25 22.23 M 55.17 62.48 C 56.54 64.83 58.57 66.64 61.02 67.81 C 63.14 63.65 64.99 59.36 67.29 55.30 L 68.25 55.23 L 67.85 54.55 C 68.56 53.10 68.97 51.54 69.23 49.95 C 68.31 49.66 67.38 49.41 66.44 49.20 C 65.84 48.94 64.65 48.40 64.05 48.13 C 57.03 48.17 52.35 56.20 55.17 62.48 M 32.22 58.69 C 32.82 59.93 33.42 61.16 34.04 62.39 C 34.87 64.10 35.72 65.80 36.61 67.48 C 38.11 70.31 39.45 73.23 41.21 75.92 C 41.15 76.19 41.02 76.74 40.95 77.01 C 46.49 74.80 49.01 67.60 45.72 62.53 L 45.71 62.39 C 43.36 60.88 40.84 59.43 37.92 59.85 C 37.53 59.64 36.75 59.21 36.35 58.99 C 35.14 57.78 33.66 58.19 32.22 58.69 Z" />
<path fill="#4f220d" opacity="1.00" d=" M 36.39 28.50 C 38.77 27.62 40.65 29.57 42.38 30.85 C 42.22 33.44 41.24 35.79 39.70 37.84 C 36.94 36.37 33.84 35.89 30.76 35.68 C 31.60 35.26 32.44 34.85 33.27 34.43 C 32.79 32.01 33.78 29.14 36.39 28.50 M 38.43 30.53 C 36.13 31.12 38.33 34.72 39.94 33.00 C 41.46 32.10 39.68 29.73 38.43 30.53 Z" />
<path fill="#4f220d" opacity="1.00" d=" M 54.83 31.92 C 55.52 28.63 60.07 27.06 62.47 29.54 C 64.02 30.82 63.78 32.93 63.74 34.71 C 64.39 34.90 65.69 35.30 66.34 35.50 C 63.34 35.93 60.30 36.38 57.54 37.71 C 56.18 36.07 54.21 34.31 54.83 31.92 M 58.07 33.46 C 58.57 33.11 59.58 32.40 60.09 32.05 C 59.69 31.65 58.91 30.87 58.52 30.47 C 56.53 29.93 55.75 33.16 58.07 33.46 Z" />
<path fill="#4f220d" opacity="1.00" d=" M 46.43 39.50 C 49.64 37.91 54.82 40.75 53.60 44.51 C 50.92 45.79 47.70 45.14 44.82 45.08 C 41.54 44.21 44.47 40.24 46.43 39.50 M 47.06 40.26 C 45.85 41.90 49.14 42.54 50.04 41.56 C 51.31 39.90 47.97 39.29 47.06 40.26 Z" />
</g>
<g id="#fb872dff">
<path fill="#fb872d" opacity="1.00" d=" M 31.13 12.83 C 42.24 9.28 54.17 9.81 65.54 11.72 C 72.50 12.93 79.13 15.48 85.68 18.04 C 83.98 19.57 82.34 21.70 79.81 21.66 C 74.60 21.73 69.89 19.02 64.85 18.10 C 52.24 15.54 38.96 15.89 26.61 19.62 C 21.30 21.02 16.60 24.24 11.03 24.77 C 10.32 22.61 10.39 19.53 12.95 18.68 C 18.55 15.29 25.36 15.74 31.13 12.83 Z" />
<path fill="#fb872d" opacity="1.00" d=" M 55.17 62.48 C 52.35 56.20 57.03 48.17 64.05 48.13 C 64.65 48.40 65.84 48.94 66.44 49.20 C 66.05 49.25 65.25 49.36 64.85 49.41 L 63.92 49.65 C 60.10 50.11 56.53 52.76 56.12 56.78 C 56.01 57.65 55.79 59.39 55.69 60.26 C 55.56 60.82 55.30 61.92 55.17 62.48 Z" />
<path fill="#fb872d" opacity="1.00" d=" M 45.63 70.22 C 46.10 67.68 45.94 65.08 45.72 62.53 C 49.01 67.60 46.49 74.80 40.95 77.01 C 41.02 76.74 41.15 76.19 41.21 75.92 C 42.18 74.80 43.22 73.77 44.21 72.67 C 44.57 72.06 45.27 70.83 45.63 70.22 Z" />
</g>
<g id="#c66924ff">
<path fill="#c66924" opacity="1.00" d=" M 26.61 19.62 C 38.96 15.89 52.24 15.54 64.85 18.10 C 69.89 19.02 74.60 21.73 79.81 21.66 C 82.34 21.70 83.98 19.57 85.68 18.04 C 90.48 20.13 87.03 28.78 82.16 26.72 C 62.26 16.91 37.85 16.39 17.73 25.86 C 15.88 26.79 13.37 27.88 11.64 26.10 C 11.49 25.77 11.19 25.10 11.03 24.77 C 16.60 24.24 21.30 21.02 26.61 19.62 Z" />
</g>
<g id="#d18f19ff">
<path fill="#d18f19" opacity="1.00" d=" M 92.02 16.92 C 96.34 20.33 95.81 27.46 92.07 31.11 C 90.61 32.78 88.42 33.39 86.57 34.46 C 84.26 38.56 82.31 42.87 80.10 47.03 C 78.22 49.92 80.10 53.64 78.26 56.56 C 77.41 58.34 75.41 58.90 73.76 59.69 C 70.97 65.26 68.12 70.80 65.33 76.37 C 64.39 78.10 64.34 80.10 63.82 81.95 C 62.86 83.93 60.78 85.12 59.89 87.16 C 58.09 90.48 56.94 94.86 52.98 96.23 C 48.61 97.48 45.15 93.65 42.01 91.20 C 44.83 93.06 48.20 95.73 51.71 93.93 C 56.12 91.73 56.41 86.05 59.67 82.76 C 62.50 80.20 62.11 76.07 63.99 72.96 C 66.63 67.95 69.04 62.83 71.73 57.84 C 73.39 56.91 75.49 56.28 76.33 54.40 C 77.65 51.45 76.52 47.96 78.06 45.07 C 80.17 40.87 82.33 36.70 84.44 32.49 C 86.87 31.43 89.49 30.33 91.01 28.02 C 93.43 24.85 93.38 20.51 92.02 16.92 Z" />
<path fill="#d18f19" opacity="1.00" d=" M 8.95 30.24 C 10.46 31.06 12.00 31.81 13.56 32.55 C 13.95 33.32 14.35 34.09 14.73 34.87 C 12.96 33.14 10.82 31.86 8.95 30.24 Z" />
<path fill="#d18f19" opacity="1.00" d=" M 74.99 31.12 C 76.37 31.40 77.77 31.63 79.16 31.87 C 76.89 36.09 75.06 40.54 72.45 44.58 C 72.08 43.67 71.70 42.78 71.29 41.89 C 72.62 38.83 74.08 35.83 75.63 32.87 C 75.47 32.43 75.15 31.56 74.99 31.12 Z" />
<path fill="#d18f19" opacity="1.00" d=" M 19.41 52.28 C 19.40 52.16 19.39 51.91 19.38 51.79 C 20.88 52.74 22.50 53.51 24.19 54.08 C 24.74 54.97 25.28 55.86 25.78 56.78 C 23.98 54.89 21.00 54.19 19.41 52.28 Z" />
</g>
<g id="#ffb720ff">
<path fill="#ffb720" opacity="1.00" d=" M 35.25 22.23 C 44.11 20.66 53.75 19.82 62.09 23.94 C 66.08 25.56 69.22 28.66 73.12 30.43 C 73.59 30.60 74.52 30.95 74.99 31.12 C 75.15 31.56 75.47 32.43 75.63 32.87 C 74.08 35.83 72.62 38.83 71.29 41.89 C 71.70 42.78 72.08 43.67 72.45 44.58 C 72.85 47.43 72.69 50.39 71.70 53.11 C 70.24 51.82 70.74 49.03 68.58 48.59 C 66.50 48.34 65.36 45.79 63.10 46.56 C 56.70 47.16 51.69 53.68 52.90 60.03 C 53.45 64.15 56.53 67.32 60.03 69.27 C 58.50 71.95 57.39 74.83 57.10 77.93 C 56.90 79.83 54.77 78.30 53.84 78.02 C 55.09 82.40 51.19 86.08 49.35 89.74 C 48.15 87.91 47.18 85.94 46.34 83.92 C 46.40 84.29 46.53 85.02 46.59 85.39 C 46.05 85.95 44.96 87.06 44.42 87.61 C 44.50 84.26 44.17 80.91 43.40 77.64 C 48.75 74.44 50.41 67.13 47.31 61.80 C 47.45 61.16 47.71 59.86 47.85 59.21 C 47.25 59.84 46.64 60.46 46.03 61.07 C 44.21 60.41 43.00 58.34 40.93 58.41 C 38.85 58.27 35.78 59.00 35.53 56.02 C 34.54 56.35 33.54 56.68 32.55 57.01 C 30.44 53.28 28.66 49.37 26.68 45.57 C 26.51 46.32 26.18 47.83 26.02 48.59 L 24.40 48.78 C 21.28 47.36 22.57 43.68 22.36 40.97 C 22.78 37.72 21.34 34.74 20.05 31.86 C 24.19 27.37 29.52 24.23 35.25 22.23 M 36.39 28.50 C 33.78 29.14 32.79 32.01 33.27 34.43 C 32.44 34.85 31.60 35.26 30.76 35.68 C 33.84 35.89 36.94 36.37 39.70 37.84 C 42.98 37.00 43.21 33.59 42.38 30.85 C 40.65 29.57 38.77 27.62 36.39 28.50 M 54.83 31.92 C 54.21 34.31 56.18 36.07 57.54 37.71 C 60.30 36.38 63.34 35.93 66.34 35.50 C 65.69 35.30 64.39 34.90 63.74 34.71 C 63.78 32.93 64.02 30.82 62.47 29.54 C 60.07 27.06 55.52 28.63 54.83 31.92 M 46.43 39.50 C 44.47 40.24 41.54 44.21 44.82 45.08 C 47.70 45.14 50.92 45.79 53.60 44.51 C 54.82 40.75 49.64 37.91 46.43 39.50 M 32.61 41.99 C 33.57 44.40 39.24 44.54 39.05 41.23 C 36.95 41.40 34.37 40.49 32.61 41.99 M 58.02 41.24 C 57.71 44.26 62.22 44.11 63.92 42.85 C 64.39 39.77 59.88 41.72 58.02 41.24 Z" />
</g>
<g id="#fc4424ff">
<path fill="#fc4424" opacity="1.00" d=" M 63.26 22.52 C 67.11 23.12 70.78 24.45 74.54 25.45 L 74.64 25.88 C 74.93 27.12 75.22 28.35 75.52 29.59 C 74.92 29.80 73.72 30.22 73.12 30.43 C 70.43 27.09 66.42 25.32 63.26 22.52 Z" />
<path fill="#fc4424" opacity="1.00" d=" M 17.71 27.66 C 19.86 26.91 21.98 26.05 24.10 25.21 C 23.59 26.14 22.57 28.01 22.06 28.94 C 21.20 29.96 20.34 30.97 19.48 31.98 C 19.04 30.90 18.15 28.74 17.71 27.66 Z" />
<path fill="#fc4424" opacity="1.00" d=" M 32.61 41.99 C 34.37 40.49 36.95 41.40 39.05 41.23 C 39.24 44.54 33.57 44.40 32.61 41.99 Z" />
<path fill="#fc4424" opacity="1.00" d=" M 58.02 41.24 C 59.88 41.72 64.39 39.77 63.92 42.85 C 62.22 44.11 57.71 44.26 58.02 41.24 Z" />
<path fill="#fc4424" opacity="1.00" d=" M 56.12 56.78 C 56.53 52.76 60.10 50.11 63.92 49.65 C 63.18 51.12 61.42 52.71 62.54 54.45 C 63.62 56.06 65.72 55.22 67.29 55.30 C 64.99 59.36 63.14 63.65 61.02 67.81 C 58.57 66.64 56.54 64.83 55.17 62.48 C 55.30 61.92 55.56 60.82 55.69 60.26 C 57.45 61.03 59.47 62.78 61.42 61.42 C 63.39 60.17 62.97 56.99 61.03 55.89 C 59.44 54.71 57.70 56.37 56.12 56.78 Z" />
<path fill="#fc4424" opacity="1.00" d=" M 32.22 58.69 C 33.66 58.19 35.14 57.78 36.35 58.99 C 35.58 60.12 34.81 61.26 34.04 62.39 C 33.42 61.16 32.82 59.93 32.22 58.69 Z" />
<path fill="#fc4424" opacity="1.00" d=" M 37.92 59.85 C 40.84 59.43 43.36 60.88 45.71 62.39 L 45.72 62.53 C 45.94 65.08 46.10 67.68 45.63 70.22 C 45.01 69.16 44.40 68.11 43.79 67.05 C 42.57 67.14 41.34 67.22 40.12 67.32 C 40.14 68.64 39.55 70.21 40.54 71.34 C 41.75 71.83 42.97 72.27 44.21 72.67 C 43.22 73.77 42.18 74.80 41.21 75.92 C 39.45 73.23 38.11 70.31 36.61 67.48 C 37.85 66.43 39.95 65.88 40.25 64.05 C 40.69 62.24 38.95 61.03 37.92 59.85 Z" />
</g>
<g id="#d93d1fff">
<path fill="#d93d1f" opacity="1.00" d=" M 74.64 25.88 C 76.81 26.40 78.90 27.21 80.90 28.21 C 80.32 29.43 79.74 30.65 79.16 31.87 C 77.77 31.63 76.37 31.40 74.99 31.12 C 74.52 30.95 73.59 30.60 73.12 30.43 C 73.72 30.22 74.92 29.80 75.52 29.59 C 75.22 28.35 74.93 27.12 74.64 25.88 Z" />
<path fill="#d93d1f" opacity="1.00" d=" M 47.06 40.26 C 47.97 39.29 51.31 39.90 50.04 41.56 C 49.14 42.54 45.85 41.90 47.06 40.26 Z" />
<path fill="#d93d1f" opacity="1.00" d=" M 66.44 49.20 C 67.38 49.41 68.31 49.66 69.23 49.95 C 68.97 51.54 68.56 53.10 67.85 54.55 C 66.85 52.84 65.85 51.13 64.85 49.41 C 65.25 49.36 66.05 49.25 66.44 49.20 Z" />
</g>
<g id="#d7b88ff6">
<path fill="#d7b88f" opacity="0.96" d=" M 42.38 30.85 C 43.21 33.59 42.98 37.00 39.70 37.84 C 41.24 35.79 42.22 33.44 42.38 30.85 Z" />
</g>
<g id="#c63a1dff">
<path fill="#c63a1d" opacity="1.00" d=" M 63.92 49.65 L 64.85 49.41 C 65.85 51.13 66.85 52.84 67.85 54.55 L 68.25 55.23 L 67.29 55.30 C 65.72 55.22 63.62 56.06 62.54 54.45 C 61.42 52.71 63.18 51.12 63.92 49.65 Z" />
<path fill="#c63a1d" opacity="1.00" d=" M 56.12 56.78 C 57.70 56.37 59.44 54.71 61.03 55.89 C 62.97 56.99 63.39 60.17 61.42 61.42 C 59.47 62.78 57.45 61.03 55.69 60.26 C 55.79 59.39 56.01 57.65 56.12 56.78 Z" />
<path fill="#c63a1d" opacity="1.00" d=" M 36.35 58.99 C 36.75 59.21 37.53 59.64 37.92 59.85 C 38.95 61.03 40.69 62.24 40.25 64.05 C 39.95 65.88 37.85 66.43 36.61 67.48 C 35.72 65.80 34.87 64.10 34.04 62.39 C 34.81 61.26 35.58 60.12 36.35 58.99 Z" />
<path fill="#c63a1d" opacity="1.00" d=" M 40.12 67.32 C 41.34 67.22 42.57 67.14 43.79 67.05 C 44.40 68.11 45.01 69.16 45.63 70.22 C 45.27 70.83 44.57 72.06 44.21 72.67 C 42.97 72.27 41.75 71.83 40.54 71.34 C 39.55 70.21 40.14 68.64 40.12 67.32 Z" />
</g>
</svg>
