<?xml version="1.0" encoding="UTF-8" ?>
<!DOCTYPE svg PUBLIC "-//W3C//DTD SVG 1.1//EN" "http://www.w3.org/Graphics/SVG/1.1/DTD/svg11.dtd">
<svg width="100pt" height="100pt" viewBox="0 0 100 100" version="1.1" xmlns="http://www.w3.org/2000/svg">
<g id="#fffffeff">
<path fill="#fffffe" opacity="1.00" d=" M 10.25 16.29 C 26.65 9.09 45.12 5.11 62.94 8.71 C 71.94 10.53 81.01 13.01 89.14 17.33 C 90.77 19.56 92.33 22.09 91.77 24.99 C 91.58 29.69 87.66 33.12 83.45 34.49 C 81.34 38.69 79.20 42.87 77.08 47.07 C 75.60 49.92 76.99 53.46 75.32 56.25 C 74.43 57.80 72.61 58.34 71.16 59.20 C 67.52 66.38 62.98 73.28 61.09 81.18 C 57.95 84.60 56.22 88.90 53.76 92.77 C 49.77 97.41 43.14 93.58 40.16 89.73 C 39.35 85.93 38.84 82.00 36.47 78.75 C 32.70 71.56 29.23 64.21 25.43 57.04 C 25.22 56.71 24.81 56.05 24.60 55.72 C 21.68 54.75 19.04 53.04 17.81 50.11 C 17.33 47.44 17.73 44.73 17.79 42.05 C 17.25 40.40 16.38 38.88 15.60 37.34 C 14.35 34.01 10.18 33.63 8.26 30.82 C 4.41 26.68 4.75 18.83 10.25 16.29 M 34.54 13.92 C 42.99 11.94 51.80 12.24 60.36 13.23 C 49.19 13.11 37.41 11.94 27.05 17.05 C 21.61 17.52 16.55 19.58 11.64 21.86 C 11.31 23.40 11.46 24.88 12.09 26.31 L 11.77 27.03 C 10.66 25.24 9.95 22.45 12.01 21.05 C 18.92 17.80 26.34 15.72 33.81 14.16 C 33.23 13.50 33.07 11.98 31.94 12.12 C 24.77 14.40 17.26 16.01 10.61 19.64 C 6.07 23.61 10.27 31.49 15.94 31.38 C 17.72 34.87 19.53 38.35 21.19 41.90 C 20.67 44.86 19.81 48.38 21.78 51.01 C 22.84 52.50 24.70 52.28 26.18 51.68 C 31.33 61.79 36.40 71.93 41.52 82.04 C 43.16 84.59 41.10 88.98 45.04 89.87 C 46.55 91.56 49.07 92.85 51.11 91.18 C 53.77 87.95 54.34 83.34 57.68 80.63 C 59.20 79.32 58.32 76.95 59.38 75.36 C 62.68 68.85 65.98 62.34 69.21 55.79 C 69.84 55.74 71.09 55.63 71.72 55.58 C 74.51 53.76 72.45 49.98 73.52 47.40 C 76.09 42.03 78.93 36.78 81.54 31.42 C 87.69 31.68 91.83 22.35 85.99 19.08 C 73.17 13.50 59.17 9.80 45.09 10.50 C 41.62 10.64 38.20 11.34 34.71 11.33 C 33.56 11.61 34.50 13.17 34.54 13.92 Z" />
<path fill="#fffffe" opacity="1.00" d=" M 23.30 30.53 C 27.05 26.97 32.05 24.92 37.12 24.17 C 30.74 25.64 25.01 29.15 20.69 34.06 C 23.36 38.69 22.56 44.13 22.60 49.23 C 21.98 46.21 22.61 43.10 22.17 40.06 C 21.38 36.35 18.47 33.44 18.03 29.61 L 18.29 30.12 C 18.88 31.35 19.46 32.58 20.02 33.83 C 21.13 32.74 22.21 31.63 23.30 30.53 Z" />
<path fill="#fffffe" opacity="1.00" d=" M 37.35 34.38 C 37.65 32.27 39.88 31.82 40.84 33.92 C 40.38 34.33 39.47 35.16 39.01 35.57 C 38.60 35.27 37.76 34.68 37.35 34.38 Z" />
<path fill="#fffffe" opacity="1.00" d=" M 56.32 33.40 C 57.23 31.59 58.90 32.79 59.72 33.96 C 58.89 35.81 55.97 35.68 56.32 33.40 Z" />
<path fill="#fffffe" opacity="1.00" d=" M 42.28 33.12 C 42.58 34.55 42.46 36.11 42.51 37.59 C 41.44 38.35 40.43 39.18 39.39 39.95 L 39.68 39.60 C 41.39 37.86 42.69 35.65 42.28 33.12 Z" />
<path fill="#fffffe" opacity="1.00" d=" M 53.59 41.95 C 53.85 42.67 54.13 43.38 54.43 44.09 C 53.60 45.14 52.86 46.28 51.87 47.20 C 50.03 48.08 47.94 47.65 45.98 47.60 L 46.58 47.60 C 50.06 48.25 54.20 45.91 53.59 41.95 Z" />
<path fill="#fffffe" opacity="1.00" d=" M 42.40 79.55 C 42.78 79.21 43.16 78.88 43.55 78.56 C 43.94 81.78 44.50 84.99 44.48 88.24 C 43.93 85.31 44.31 82.06 42.40 79.55 Z" />
<path fill="#fffffe" opacity="1.00" d=" M 46.43 84.99 C 47.26 86.86 48.08 88.73 48.88 90.62 C 47.75 89.73 46.77 88.58 46.73 87.06 C 46.65 86.54 46.50 85.51 46.43 84.99 Z" />
</g>
<g id="#4e200cff">
<path fill="#4e200c" opacity="1.00" d=" M 34.54 13.92 C 34.50 13.17 33.56 11.61 34.71 11.33 C 38.20 11.34 41.62 10.64 45.09 10.50 C 59.17 9.80 73.17 13.50 85.99 19.08 C 91.83 22.35 87.69 31.68 81.54 31.42 C 78.93 36.78 76.09 42.03 73.52 47.40 C 72.45 49.98 74.51 53.76 71.72 55.58 C 71.09 55.63 69.84 55.74 69.21 55.79 C 65.98 62.34 62.68 68.85 59.38 75.36 C 58.32 76.95 59.20 79.32 57.68 80.63 C 54.34 83.34 53.77 87.95 51.11 91.18 C 49.07 92.85 46.55 91.56 45.04 89.87 C 41.10 88.98 43.16 84.59 41.52 82.04 C 36.40 71.93 31.33 61.79 26.18 51.68 C 24.70 52.28 22.84 52.50 21.78 51.01 C 19.81 48.38 20.67 44.86 21.19 41.90 C 19.53 38.35 17.72 34.87 15.94 31.38 C 10.27 31.49 6.07 23.61 10.61 19.64 C 17.26 16.01 24.77 14.40 31.94 12.12 C 33.07 11.98 33.23 13.50 33.81 14.16 C 26.34 15.72 18.92 17.80 12.01 21.05 C 9.95 22.45 10.66 25.24 11.77 27.03 C 12.50 29.49 15.53 29.56 17.38 28.37 C 35.35 19.75 56.90 19.01 75.43 26.33 C 77.97 27.27 80.32 28.85 83.05 29.17 C 87.10 28.38 88.61 21.80 84.31 20.23 C 76.59 17.12 68.61 14.50 60.36 13.23 C 51.80 12.24 42.99 11.94 34.54 13.92 M 37.12 24.17 C 32.05 24.92 27.05 26.97 23.30 30.53 C 23.42 29.77 23.66 28.26 23.79 27.51 C 21.92 28.31 20.09 29.19 18.29 30.12 L 18.03 29.61 C 18.47 33.44 21.38 36.35 22.17 40.06 C 22.61 43.10 21.98 46.21 22.60 49.23 C 23.73 52.63 27.17 49.70 26.84 47.23 C 27.02 47.49 27.20 47.74 27.38 47.99 C 27.41 52.11 30.38 55.43 31.97 59.06 L 33.10 58.08 C 34.01 58.03 35.82 57.94 36.73 57.89 C 35.60 58.84 34.41 59.75 33.00 60.25 C 33.30 61.17 33.61 62.09 33.92 63.00 C 34.69 64.93 35.75 66.71 36.72 68.54 C 38.11 71.32 39.52 74.08 41.00 76.82 C 41.15 77.09 41.47 77.64 41.63 77.91 C 45.71 75.36 48.13 70.48 46.69 65.70 C 45.98 63.40 43.40 62.65 41.65 61.33 L 42.18 61.18 C 40.21 61.08 38.23 60.96 36.26 61.15 C 36.27 60.90 36.28 60.38 36.29 60.12 C 40.27 58.27 43.55 61.07 46.99 62.51 C 50.19 67.88 48.77 75.03 43.55 78.56 C 43.16 78.88 42.78 79.21 42.40 79.55 C 44.31 82.06 43.93 85.31 44.48 88.24 L 46.73 87.06 C 46.77 88.58 47.75 89.73 48.88 90.62 C 51.19 87.26 54.32 83.47 53.55 79.15 C 54.46 79.45 55.37 79.77 56.28 80.11 C 56.90 76.73 57.76 73.35 59.75 70.49 C 55.19 68.24 51.80 63.37 52.58 58.14 C 53.18 52.06 59.07 47.74 65.00 48.00 C 65.20 48.43 65.61 49.30 65.81 49.73 C 68.74 49.49 70.19 51.61 70.28 54.31 C 73.21 52.32 71.36 47.82 71.77 44.81 L 72.66 45.02 C 74.37 41.22 76.35 37.55 78.13 33.78 L 78.58 33.83 C 79.05 32.61 79.52 31.40 80.00 30.18 C 78.05 29.32 76.09 28.50 74.09 27.75 C 70.37 26.70 66.72 25.30 62.84 24.96 C 65.78 26.99 68.69 29.07 71.51 31.26 L 72.07 32.34 C 68.28 30.37 65.02 27.46 61.01 25.86 C 53.56 22.37 45.03 22.89 37.12 24.17 M 56.83 52.82 C 53.08 56.45 53.23 63.11 57.24 66.50 L 57.33 66.86 C 58.31 67.56 59.29 68.28 60.26 68.99 C 62.78 65.13 64.39 60.79 66.63 56.77 L 66.88 56.78 C 67.35 55.91 67.82 55.06 68.31 54.20 C 68.74 51.68 66.75 50.69 64.66 50.23 L 65.40 49.90 C 62.28 49.54 58.94 50.38 56.83 52.82 Z" />
<path fill="#4e200c" opacity="1.00" d=" M 35.28 31.18 C 37.65 29.28 40.76 30.98 42.28 33.12 C 42.69 35.65 41.39 37.86 39.68 39.60 C 36.96 38.25 33.97 37.77 30.97 37.58 C 31.79 37.21 32.61 36.83 33.42 36.46 C 33.29 34.53 33.43 32.29 35.28 31.18 M 37.35 34.38 C 37.76 34.68 38.60 35.27 39.01 35.57 C 39.47 35.16 40.38 34.33 40.84 33.92 C 39.88 31.82 37.65 32.27 37.35 34.38 Z" />
<path fill="#4e200c" opacity="1.00" d=" M 55.27 32.35 C 57.09 29.29 62.16 29.98 63.12 33.40 C 63.11 34.49 63.19 35.58 63.35 36.67 L 63.84 36.87 C 64.22 37.03 64.97 37.36 65.35 37.52 C 62.49 37.90 59.62 38.40 56.94 39.52 C 55.33 37.56 53.29 34.80 55.27 32.35 M 56.32 33.40 C 55.97 35.68 58.89 35.81 59.72 33.96 C 58.90 32.79 57.23 31.59 56.32 33.40 Z" />
<path fill="#4e200c" opacity="1.00" d=" M 46.58 47.60 C 44.96 46.45 41.74 43.85 44.01 41.89 C 47.15 41.16 50.43 41.63 53.59 41.95 C 54.20 45.91 50.06 48.25 46.58 47.60 M 47.29 45.46 C 47.58 46.74 48.36 46.95 49.63 46.10 C 49.33 44.83 48.55 44.61 47.29 45.46 Z" />
</g>
<g id="#fb872dff">
<path fill="#fb872d" opacity="1.00" d=" M 27.05 17.05 C 37.41 11.94 49.19 13.11 60.36 13.23 C 68.61 14.50 76.59 17.12 84.31 20.23 C 83.32 21.29 82.37 22.40 81.24 23.31 C 78.38 24.57 75.17 23.53 72.35 22.68 C 56.54 17.20 38.84 17.41 23.14 23.16 C 19.51 24.37 16.14 27.13 12.09 26.31 C 11.46 24.88 11.31 23.40 11.64 21.86 C 16.55 19.58 21.61 17.52 27.05 17.05 Z" />
<path fill="#fb872d" opacity="1.00" d=" M 74.22 33.35 C 75.52 33.53 76.82 33.66 78.13 33.78 C 76.35 37.55 74.37 41.22 72.66 45.02 L 71.77 44.81 C 71.37 44.72 70.56 44.53 70.16 44.43 C 71.60 41.19 73.14 37.99 74.77 34.83 C 74.64 34.46 74.36 33.72 74.22 33.35 Z" />
<path fill="#fb872d" opacity="1.00" d=" M 47.29 45.46 C 48.55 44.61 49.33 44.83 49.63 46.10 C 48.36 46.95 47.58 46.74 47.29 45.46 Z" />
<path fill="#fb872d" opacity="1.00" d=" M 56.83 52.82 C 58.94 50.38 62.28 49.54 65.40 49.90 L 64.66 50.23 C 60.88 51.67 56.80 53.48 55.58 57.74 C 55.72 59.75 56.05 61.75 56.53 63.71 C 56.75 64.64 57.00 65.57 57.24 66.50 C 53.23 63.11 53.08 56.45 56.83 52.82 Z" />
<path fill="#fb872d" opacity="1.00" d=" M 45.57 71.05 C 46.01 69.28 46.37 67.49 46.69 65.70 C 48.13 70.48 45.71 75.36 41.63 77.91 C 41.47 77.64 41.15 77.09 41.00 76.82 C 42.10 75.75 43.21 74.69 44.25 73.56 C 44.58 72.93 45.24 71.68 45.57 71.05 Z" />
</g>
<g id="#c76c22ff">
<path fill="#c76c22" opacity="1.00" d=" M 89.14 17.33 C 90.75 17.27 90.91 19.25 91.87 20.14 C 94.97 23.81 94.30 29.70 91.04 33.04 C 89.60 34.74 87.37 35.36 85.51 36.44 C 83.23 40.56 81.27 44.86 79.06 49.03 C 77.44 51.68 79.16 55.04 77.57 57.71 C 76.80 59.59 74.80 60.30 73.08 61.02 C 69.80 68.39 64.73 75.11 63.22 83.14 C 60.45 85.93 58.64 89.34 57.00 92.86 C 55.52 96.25 51.12 98.03 47.83 96.13 C 45.27 94.42 42.62 92.75 40.47 90.52 C 38.93 88.89 39.54 86.42 39.06 84.41 C 38.31 82.47 37.29 80.65 36.47 78.75 C 38.84 82.00 39.35 85.93 40.16 89.73 C 43.14 93.58 49.77 97.41 53.76 92.77 C 56.22 88.90 57.95 84.60 61.09 81.18 C 62.98 73.28 67.52 66.38 71.16 59.20 C 72.61 58.34 74.43 57.80 75.32 56.25 C 76.99 53.46 75.60 49.92 77.08 47.07 C 79.20 42.87 81.34 38.69 83.45 34.49 C 87.66 33.12 91.58 29.69 91.77 24.99 C 92.33 22.09 90.77 19.56 89.14 17.33 Z" />
<path fill="#c76c22" opacity="1.00" d=" M 23.14 23.16 C 38.84 17.41 56.54 17.20 72.35 22.68 C 75.17 23.53 78.38 24.57 81.24 23.31 C 82.37 22.40 83.32 21.29 84.31 20.23 C 88.61 21.80 87.10 28.38 83.05 29.17 C 80.32 28.85 77.97 27.27 75.43 26.33 C 56.90 19.01 35.35 19.75 17.38 28.37 C 15.53 29.56 12.50 29.49 11.77 27.03 L 12.09 26.31 C 16.14 27.13 19.51 24.37 23.14 23.16 Z" />
<path fill="#c76c22" opacity="1.00" d=" M 17.81 50.11 C 19.04 53.04 21.68 54.75 24.60 55.72 C 24.81 56.05 25.22 56.71 25.43 57.04 C 21.97 56.08 19.01 53.53 17.81 50.11 Z" />
</g>
<g id="#ffb720ff">
<path fill="#ffb720" opacity="1.00" d=" M 37.12 24.17 C 45.03 22.89 53.56 22.37 61.01 25.86 C 65.02 27.46 68.28 30.37 72.07 32.34 C 72.61 32.60 73.68 33.10 74.22 33.35 C 74.36 33.72 74.64 34.46 74.77 34.83 C 73.14 37.99 71.60 41.19 70.16 44.43 C 70.56 44.53 71.37 44.72 71.77 44.81 C 71.36 47.82 73.21 52.32 70.28 54.31 C 70.19 51.61 68.74 49.49 65.81 49.73 C 65.61 49.30 65.20 48.43 65.00 48.00 C 59.07 47.74 53.18 52.06 52.58 58.14 C 51.80 63.37 55.19 68.24 59.75 70.49 C 57.76 73.35 56.90 76.73 56.28 80.11 C 55.37 79.77 54.46 79.45 53.55 79.15 C 54.32 83.47 51.19 87.26 48.88 90.62 C 48.08 88.73 47.26 86.86 46.43 84.99 C 46.50 85.51 46.65 86.54 46.73 87.06 L 44.48 88.24 C 44.50 84.99 43.94 81.78 43.55 78.56 C 48.77 75.03 50.19 67.88 46.99 62.51 C 43.55 61.07 40.27 58.27 36.29 60.12 C 36.28 60.38 36.27 60.90 36.26 61.15 C 35.88 61.22 35.13 61.35 34.75 61.41 C 34.54 61.81 34.12 62.61 33.92 63.00 C 33.61 62.09 33.30 61.17 33.00 60.25 C 34.41 59.75 35.60 58.84 36.73 57.89 C 35.82 57.94 34.01 58.03 33.10 58.08 C 31.40 54.61 29.80 51.05 27.38 47.99 C 27.20 47.74 27.02 47.49 26.84 47.23 C 27.17 49.70 23.73 52.63 22.60 49.23 C 22.56 44.13 23.36 38.69 20.69 34.06 C 25.01 29.15 30.74 25.64 37.12 24.17 M 35.28 31.18 C 33.43 32.29 33.29 34.53 33.42 36.46 C 32.61 36.83 31.79 37.21 30.97 37.58 C 33.97 37.77 36.96 38.25 39.68 39.60 L 39.39 39.95 C 40.43 39.18 41.44 38.35 42.51 37.59 C 42.46 36.11 42.58 34.55 42.28 33.12 C 40.76 30.98 37.65 29.28 35.28 31.18 M 55.27 32.35 C 53.29 34.80 55.33 37.56 56.94 39.52 C 59.62 38.40 62.49 37.90 65.35 37.52 C 64.97 37.36 64.22 37.03 63.84 36.87 C 65.13 36.14 64.83 33.11 63.12 33.40 C 62.16 29.98 57.09 29.29 55.27 32.35 M 46.58 47.60 L 45.98 47.60 C 47.94 47.65 50.03 48.08 51.87 47.20 C 52.86 46.28 53.60 45.14 54.43 44.09 C 54.13 43.38 53.85 42.67 53.59 41.95 C 50.43 41.63 47.15 41.16 44.01 41.89 C 41.74 43.85 44.96 46.45 46.58 47.60 M 33.23 43.22 C 32.19 46.21 39.82 46.30 38.89 43.21 C 37.08 42.39 35.06 42.55 33.23 43.22 M 58.08 43.26 C 55.76 45.69 64.67 46.58 63.72 43.33 C 61.94 42.62 59.82 42.21 58.08 43.26 Z" />
</g>
<g id="#fc4424ff">
<path fill="#fc4424" opacity="1.00" d=" M 62.84 24.96 C 66.72 25.30 70.37 26.70 74.09 27.75 C 74.37 29.14 74.64 30.53 74.92 31.92 C 73.78 31.72 72.64 31.50 71.51 31.26 C 68.69 29.07 65.78 26.99 62.84 24.96 Z" />
<path fill="#fc4424" opacity="1.00" d=" M 18.29 30.12 C 20.09 29.19 21.92 28.31 23.79 27.51 C 23.66 28.26 23.42 29.77 23.30 30.53 C 22.21 31.63 21.13 32.74 20.02 33.83 C 19.46 32.58 18.88 31.35 18.29 30.12 Z" />
<path fill="#fc4424" opacity="1.00" d=" M 33.23 43.22 C 35.06 42.55 37.08 42.39 38.89 43.21 C 39.82 46.30 32.19 46.21 33.23 43.22 Z" />
<path fill="#fc4424" opacity="1.00" d=" M 58.08 43.26 C 59.82 42.21 61.94 42.62 63.72 43.33 C 64.67 46.58 55.76 45.69 58.08 43.26 Z" />
<path fill="#fc4424" opacity="1.00" d=" M 55.58 57.74 C 56.80 53.48 60.88 51.67 64.66 50.23 C 66.75 50.69 68.74 51.68 68.31 54.20 C 66.52 53.33 64.58 51.23 62.48 52.56 C 61.49 53.73 61.96 55.30 62.16 56.65 C 63.65 56.69 65.14 56.73 66.63 56.77 C 64.39 60.79 62.78 65.13 60.26 68.99 C 59.29 68.28 58.31 67.56 57.33 66.86 L 57.24 66.50 C 57.00 65.57 56.75 64.64 56.53 63.71 C 59.05 63.41 63.39 62.68 62.06 59.06 C 61.26 55.89 57.81 57.39 55.58 57.74 Z" />
<path fill="#fc4424" opacity="1.00" d=" M 39.55 61.92 C 40.08 61.77 41.13 61.47 41.65 61.33 C 43.40 62.65 45.98 63.40 46.69 65.70 C 46.37 67.49 46.01 69.28 45.57 71.05 C 44.54 70.00 44.02 67.75 42.13 68.16 C 39.66 68.18 39.99 70.89 40.05 72.61 C 41.45 72.92 42.85 73.24 44.25 73.56 C 43.21 74.69 42.10 75.75 41.00 76.82 C 39.52 74.08 38.11 71.32 36.72 68.54 C 37.80 67.68 39.32 67.24 40.02 65.97 C 40.37 64.61 39.73 63.26 39.55 61.92 Z" />
</g>
<g id="#c73a1dff">
<path fill="#c73a1d" opacity="1.00" d=" M 74.09 27.75 C 76.09 28.50 78.05 29.32 80.00 30.18 C 79.52 31.40 79.05 32.61 78.58 33.83 L 78.13 33.78 C 76.82 33.66 75.52 33.53 74.22 33.35 C 73.68 33.10 72.61 32.60 72.07 32.34 L 71.51 31.26 C 72.64 31.50 73.78 31.72 74.92 31.92 C 74.64 30.53 74.37 29.14 74.09 27.75 Z" />
<path fill="#c73a1d" opacity="1.00" d=" M 62.48 52.56 C 64.58 51.23 66.52 53.33 68.31 54.20 C 67.82 55.06 67.35 55.91 66.88 56.78 L 66.63 56.77 C 65.14 56.73 63.65 56.69 62.16 56.65 C 61.96 55.30 61.49 53.73 62.48 52.56 Z" />
<path fill="#c73a1d" opacity="1.00" d=" M 55.58 57.74 C 57.81 57.39 61.26 55.89 62.06 59.06 C 63.39 62.68 59.05 63.41 56.53 63.71 C 56.05 61.75 55.72 59.75 55.58 57.74 Z" />
<path fill="#c73a1d" opacity="1.00" d=" M 36.26 61.15 C 38.23 60.96 40.21 61.08 42.18 61.18 L 41.65 61.33 C 41.13 61.47 40.08 61.77 39.55 61.92 C 39.73 63.26 40.37 64.61 40.02 65.97 C 39.32 67.24 37.80 67.68 36.72 68.54 C 35.75 66.71 34.69 64.93 33.92 63.00 C 34.12 62.61 34.54 61.81 34.75 61.41 C 35.13 61.35 35.88 61.22 36.26 61.15 Z" />
<path fill="#c73a1d" opacity="1.00" d=" M 40.05 72.61 C 39.99 70.89 39.66 68.18 42.13 68.16 C 44.02 67.75 44.54 70.00 45.57 71.05 C 45.24 71.68 44.58 72.93 44.25 73.56 C 42.85 73.24 41.45 72.92 40.05 72.61 Z" />
</g>
<g id="#e7b973ff">
<path fill="#e7b973" opacity="1.00" d=" M 63.12 33.40 C 64.83 33.11 65.13 36.14 63.84 36.87 L 63.35 36.67 C 63.19 35.58 63.11 34.49 63.12 33.40 Z" />
<path fill="#e7b973" opacity="1.00" d=" M 27.38 47.99 C 29.80 51.05 31.40 54.61 33.10 58.08 L 31.97 59.06 C 30.38 55.43 27.41 52.11 27.38 47.99 Z" />
</g>
</svg>
