<?xml version="1.0" encoding="UTF-8" ?>
<!DOCTYPE svg PUBLIC "-//W3C//DTD SVG 1.1//EN" "http://www.w3.org/Graphics/SVG/1.1/DTD/svg11.dtd">
<svg width="70pt" height="70pt" viewBox="0 0 70 70" version="1.1" xmlns="http://www.w3.org/2000/svg">
<g id="#f44336ff">
<path fill="#f44336" opacity="1.00" d=" M 27.33 10.19 C 32.68 10.19 38.03 10.27 43.37 10.12 C 43.94 11.63 44.40 13.18 44.57 14.78 C 48.06 14.81 51.57 14.56 55.05 14.88 C 56.44 15.43 55.75 17.51 56.13 18.69 C 42.12 18.68 28.12 18.70 14.12 18.68 C 14.15 17.65 14.18 16.61 14.22 15.58 C 18.07 14.17 22.24 14.90 26.25 14.79 C 26.48 13.22 26.83 11.69 27.33 10.19 Z" />
<path fill="#f44336" opacity="1.00" d=" M 18.46 22.65 C 29.78 22.70 41.11 22.66 52.43 22.67 C 50.92 34.05 50.11 45.52 48.65 56.91 C 48.54 58.78 46.96 60.79 44.96 60.69 C 38.66 60.78 32.35 60.75 26.06 60.70 C 23.88 60.85 22.35 58.63 22.04 56.69 C 20.82 45.35 19.79 33.98 18.46 22.65 M 34.87 26.67 C 34.54 26.95 33.87 27.50 33.54 27.78 C 33.29 36.77 33.45 45.79 33.47 54.79 C 33.38 56.89 36.86 57.38 37.33 55.22 C 37.50 46.47 37.38 37.70 37.38 28.95 C 37.67 27.57 36.12 26.48 34.87 26.67 M 23.41 27.69 C 24.13 36.74 24.62 45.81 25.55 54.84 C 25.44 57.78 30.27 56.70 29.46 54.02 C 28.62 45.32 28.22 36.57 27.33 27.87 C 26.45 26.06 24.70 26.87 23.41 27.69 M 43.67 27.87 C 42.46 34.82 42.65 41.94 41.70 48.93 C 41.61 51.36 41.03 53.89 41.82 56.25 C 43.40 57.05 44.55 56.69 45.28 55.18 C 45.96 46.06 46.67 36.95 47.47 27.84 C 46.80 27.46 45.47 26.70 44.81 26.33 C 44.52 26.71 43.95 27.49 43.67 27.87 Z" />
</g>
</svg>
