<?xml version="1.0" encoding="UTF-8" ?>
<!DOCTYPE svg PUBLIC "-//W3C//DTD SVG 1.1//EN" "http://www.w3.org/Graphics/SVG/1.1/DTD/svg11.dtd">
<svg width="98pt" height="161pt" viewBox="0 0 98 161" version="1.1" xmlns="http://www.w3.org/2000/svg">
<g id="#4c4b4bff">
<path fill="#4c4b4b" opacity="1.00" d=" M 12.99 5.01 C 15.56 5.05 18.15 4.86 20.71 5.10 C 20.75 5.94 20.82 7.62 20.86 8.47 C 18.28 8.70 15.68 8.56 13.09 8.59 C 13.06 7.40 13.03 6.20 12.99 5.01 Z" />
<path fill="#4c4b4b" opacity="1.00" d=" M 13.06 65.83 C 15.57 65.84 18.07 65.83 20.58 65.79 C 20.69 96.18 20.53 126.57 20.66 156.96 C 18.11 157.06 15.55 156.98 12.99 157.00 C 13.18 126.61 13.02 96.22 13.06 65.83 Z" />
</g>
<g id="#f44336ff">
<path fill="#f44336" opacity="1.00" d=" M 20.86 8.47 C 44.55 8.56 68.28 8.71 91.97 8.39 C 92.57 10.10 90.97 10.89 89.90 11.83 C 82.20 19.85 74.39 27.76 66.38 35.46 C 64.94 35.98 64.74 38.11 66.19 38.77 C 74.64 47.91 83.32 56.97 92.10 65.68 C 68.27 65.92 44.42 65.70 20.58 65.79 C 18.07 65.83 15.57 65.84 13.06 65.83 C 13.06 46.75 13.06 27.67 13.09 8.59 C 15.68 8.56 18.28 8.70 20.86 8.47 Z" />
</g>
</svg>
