<?xml version="1.0" encoding="UTF-8" ?>
<!DOCTYPE svg PUBLIC "-//W3C//DTD SVG 1.1//EN" "http://www.w3.org/Graphics/SVG/1.1/DTD/svg11.dtd">
<svg width="70pt" height="70pt" viewBox="0 0 70 70" version="1.1" xmlns="http://www.w3.org/2000/svg">
<g id="#000000ff">
<path fill="#fff" opacity="1.00" d=" M 33.38 9.49 C 33.35 7.59 33.16 4.16 35.91 4.20 C 38.70 4.18 38.61 7.50 38.51 9.50 C 50.35 10.81 60.62 20.70 61.70 32.66 C 63.56 32.81 66.67 32.53 66.90 35.06 C 66.80 35.67 66.59 36.91 66.49 37.52 C 64.88 37.76 63.27 38.04 61.67 38.37 C 60.61 50.35 50.26 59.94 38.55 61.44 C 38.56 63.28 38.71 66.88 36.06 66.89 C 33.19 67.15 33.37 63.37 33.47 61.46 C 21.68 60.01 11.31 50.34 10.21 38.33 C 8.60 38.06 7.00 37.80 5.39 37.56 C 5.28 36.29 4.61 34.81 5.48 33.65 C 6.86 32.66 8.61 32.84 10.20 32.67 C 11.26 20.69 21.56 10.83 33.38 9.49 M 30.27 15.50 C 21.01 17.95 14.28 27.47 15.30 37.05 C 15.73 48.55 27.34 57.82 38.65 56.05 C 49.92 54.80 58.59 43.23 56.42 32.06 C 54.82 20.27 41.64 11.75 30.27 15.50 Z" />
<path fill="#fff" opacity="1.00" d=" M 32.50 25.67 C 37.64 23.81 43.81 26.62 45.64 31.80 C 48.43 38.11 42.89 46.19 35.95 45.71 C 30.60 46.02 25.84 41.28 25.59 36.04 C 25.22 31.53 28.30 27.18 32.50 25.67 Z" />
</g>
</svg>
