<?xml version="1.0" encoding="UTF-8" ?>
<!DOCTYPE svg PUBLIC "-//W3C//DTD SVG 1.1//EN" "http://www.w3.org/Graphics/SVG/1.1/DTD/svg11.dtd">
<svg width="50pt" height="70pt" viewBox="0 0 50 70" version="1.1" xmlns="http://www.w3.org/2000/svg">
<g id="#f44336ff">
<path fill="#f44336" opacity="1.00" d=" M 3.28 15.34 C 6.55 8.67 13.13 3.59 20.48 2.38 L 20.40 1.44 C 23.44 1.28 26.49 1.32 29.52 1.54 L 29.46 2.47 C 37.22 3.92 44.02 9.61 46.96 16.94 C 49.73 23.83 49.13 31.98 45.33 38.37 C 39.34 48.77 31.88 58.20 24.87 67.91 C 19.52 61.26 14.63 54.26 9.77 47.25 C 6.68 42.49 3.16 37.79 1.63 32.25 C 0.67 26.65 0.57 20.50 3.28 15.34 M 21.43 14.59 C 13.40 16.88 11.53 28.80 18.44 33.45 C 24.89 38.87 35.70 33.26 35.47 25.00 C 35.82 17.90 28.15 12.28 21.43 14.59 Z" />
</g>
</svg>
