<?xml version="1.0" encoding="UTF-8" ?>
<!DOCTYPE svg PUBLIC "-//W3C//DTD SVG 1.1//EN" "http://www.w3.org/Graphics/SVG/1.1/DTD/svg11.dtd">
<svg width="70pt" height="100pt" viewBox="0 0 70 100" version="1.1" xmlns="http://www.w3.org/2000/svg">
<g id="#f44336ff">
<path fill="#f44336" opacity="1.00" d=" M 29.24 9.24 C 39.90 6.92 51.68 11.00 58.55 19.50 C 62.45 23.12 63.98 28.33 65.79 33.16 C 68.88 44.36 66.94 56.95 60.25 66.48 C 55.52 71.72 50.86 77.02 46.34 82.43 C 42.31 85.20 39.88 89.64 36.09 92.68 C 33.95 92.85 32.88 90.81 31.55 89.53 C 29.41 87.00 27.15 84.59 24.52 82.56 C 21.31 78.45 17.75 74.64 14.35 70.69 C 3.49 60.13 0.63 42.48 6.73 28.74 C 10.16 18.95 19.16 11.44 29.24 9.24 M 13.14 43.03 C 12.43 52.46 17.80 61.18 24.75 67.10 C 28.36 70.91 31.70 74.98 35.15 78.94 C 39.87 75.05 42.99 69.61 47.63 65.64 C 53.89 59.92 58.29 51.66 57.77 43.01 C 57.57 31.19 48.37 19.22 36.04 18.70 C 23.25 18.38 13.13 30.80 13.14 43.03 Z" />
<path fill="#f44336" opacity="1.00" d=" M 31.66 29.82 C 38.91 27.42 47.46 32.35 48.76 39.92 C 50.97 48.46 42.72 57.38 34.04 55.91 C 27.25 55.27 21.76 48.75 22.31 41.95 C 22.43 36.46 26.50 31.50 31.66 29.82 Z" />
</g>
</svg>
