<?xml version="1.0" encoding="UTF-8" ?>
<!DOCTYPE svg PUBLIC "-//W3C//DTD SVG 1.1//EN" "http://www.w3.org/Graphics/SVG/1.1/DTD/svg11.dtd">
<svg width="50pt" height="50pt" viewBox="0 0 50 50" version="1.1" xmlns="http://www.w3.org/2000/svg">
<g id="#ffffffff">
</g>
<g id="#000000ff">
<path fill="#f87f77" opacity="1.00" d=" M 20.24 10.22 C 27.08 5.62 37.52 8.61 40.68 16.28 C 43.96 23.01 40.74 31.91 33.90 34.97 C 29.08 37.56 23.07 36.47 18.89 33.15 C 16.01 35.91 13.28 38.82 10.38 41.57 C 9.90 41.08 8.93 40.11 8.44 39.63 C 11.20 36.74 14.08 33.98 16.85 31.11 C 11.39 24.87 13.17 14.43 20.24 10.22 M 23.53 11.70 C 19.45 13.33 16.46 17.56 16.49 21.98 C 16.16 28.50 22.58 34.33 29.03 33.47 C 35.74 32.90 40.94 25.43 38.69 18.99 C 37.05 12.75 29.45 8.89 23.53 11.70 Z" />
</g>
</svg>
